<svg width="18" height="15" viewBox="0 0 18 15" fill="none" xmlns="http://www.w3.org/2000/svg">
    <path fill-rule="evenodd" clip-rule="evenodd"
        d="M8.5608 0.236267C8.73903 -0.0787558 9.26101 -0.0787558 9.43924 0.236267L17.4502 14.3963C17.608 14.6753 17.3717 15 17.011 15H0.989039C0.628265 15 0.392002 14.6753 0.549828 14.3963L8.5608 0.236267ZM8.02309 5.75986C8.02309 5.29592 8.46043 4.91985 8.99995 4.91985C9.53947 4.91985 9.97681 5.29592 9.97681 5.75986V9.95989C9.97681 10.4238 9.53947 10.7999 8.99995 10.7999C8.46043 10.7999 8.02309 10.4238 8.02309 9.95989V5.75986ZM8.98358 11.6399C8.4532 11.6399 8.02318 12.0096 8.02318 12.4657C8.02318 12.9219 8.4532 13.2916 8.98358 13.2916H9.0165C9.54694 13.2916 9.9769 12.9219 9.9769 12.4657C9.9769 12.0096 9.54694 11.6399 9.0165 11.6399H8.98358Z"
        fill="white" />
</svg>