<svg width="22" height="22" viewBox="0 0 22 22" fill="none" xmlns="http://www.w3.org/2000/svg">
<path fill-rule="evenodd" clip-rule="evenodd" d="M11.0001 4.19539C10.6088 3.99974 10.6086 4 10.6086 4L10.6082 4.00096L10.6072 4.00289L10.6044 4.00857L10.5953 4.02743C10.5878 4.04323 10.5775 4.06541 10.565 4.09332C10.5399 4.14914 10.506 4.22824 10.4687 4.32546C10.3944 4.51857 10.3039 4.78925 10.2429 5.09397C10.1273 5.67199 10.089 6.52801 10.6907 7.12974C10.964 7.40301 11.0023 7.85949 10.8992 8.37522C10.8507 8.61738 10.7772 8.83888 10.7148 9.00124C10.6838 9.08178 10.6561 9.14618 10.6367 9.18954C10.6271 9.21115 10.6194 9.22742 10.6145 9.23766L10.6094 9.24847L10.6086 9.24996C10.6086 9.24996 10.6088 9.24974 11.0001 9.44539C11.3914 9.64104 11.3916 9.64051 11.3916 9.64051L11.392 9.63981L11.3929 9.63793L11.3957 9.6322L11.4048 9.61339C11.4123 9.59759 11.4226 9.57537 11.4352 9.54746C11.4602 9.49163 11.4941 9.41253 11.5315 9.31532C11.6057 9.12221 11.6963 8.85152 11.7572 8.54681C11.8728 7.96878 11.9112 7.11277 11.3094 6.51103C11.0362 6.23777 10.9978 5.78128 11.101 5.26556C11.1494 5.0234 11.2229 4.80189 11.2854 4.63954C11.3163 4.55899 11.344 4.49459 11.3634 4.45124C11.3731 4.42962 11.3807 4.41335 11.3856 4.40311L11.3908 4.39231L11.3915 4.39082C11.3915 4.39082 11.3914 4.39104 11.0001 4.19539ZM2.25 11.8517C2.25 11.61 2.44588 11.4142 2.6875 11.4142H19.3125C19.5541 11.4142 19.75 11.61 19.75 11.8517C19.75 12.0933 19.5541 12.2892 19.3125 12.2892H18C18 14.2222 16.433 17.5392 14.5 17.5392H7.5C5.56699 17.5392 4 14.2222 4 12.2892H2.6875C2.44588 12.2892 2.25 12.0933 2.25 11.8517ZM7.13722 5.04462C7.13722 5.04462 7.13743 5.04435 7.50004 5.28914C7.86264 5.53392 7.86281 5.5337 7.86281 5.5337L7.85743 5.54201C7.8524 5.54984 7.84435 5.56262 7.83394 5.57972C7.81315 5.61411 7.78332 5.6656 7.74989 5.73C7.68204 5.86073 7.60403 6.03555 7.55328 6.2235C7.44789 6.61384 7.48577 6.92162 7.76044 7.1251C8.47015 7.6508 8.43226 8.43677 8.29156 8.95788C8.21924 9.22567 8.11267 9.46096 8.02674 9.62647C7.9833 9.7102 7.94388 9.77837 7.9147 9.82658C7.90008 9.85073 7.88797 9.87002 7.87904 9.88389L7.86819 9.9006L7.86469 9.90585L7.86351 9.90765L7.86303 9.90835C7.86303 9.90835 7.86264 9.90892 7.50004 9.66414C7.13743 9.41935 7.13726 9.41962 7.13726 9.41962L7.14264 9.41126C7.14767 9.40343 7.15572 9.3907 7.16614 9.37355C7.18692 9.33916 7.21675 9.28771 7.25018 9.22327C7.31804 9.09259 7.39604 8.91772 7.44679 8.72977C7.55219 8.33943 7.5143 8.03165 7.23964 7.82821C6.52992 7.30247 6.56781 6.5165 6.70851 5.99539C6.78083 5.72764 6.8874 5.49231 6.97333 5.3268C7.01677 5.24311 7.05619 5.17495 7.08537 5.12669C7.09999 5.10254 7.1121 5.08325 7.12103 5.06938L7.13188 5.05267L7.13538 5.04742L7.13656 5.04562L7.13722 5.04462ZM14.9375 5.28914C14.5749 5.04435 14.5747 5.04462 14.5747 5.04462L14.5741 5.04562L14.5729 5.04742L14.5694 5.05267L14.5585 5.06938C14.5496 5.08325 14.5375 5.10254 14.5229 5.12669C14.4937 5.17495 14.4543 5.24311 14.4108 5.3268C14.3249 5.49231 14.2183 5.72764 14.146 5.99539C14.0053 6.5165 13.9674 7.30247 14.6771 7.82821C14.9518 8.03165 14.9897 8.33943 14.8843 8.72977C14.8335 8.91772 14.7555 9.09259 14.6877 9.22327C14.6543 9.28771 14.6244 9.33916 14.6036 9.37355C14.5932 9.3907 14.5852 9.40343 14.5801 9.41126L14.5748 9.41962C14.5748 9.41962 14.5749 9.41935 14.9375 9.66414C15.3001 9.90892 15.3005 9.90835 15.3005 9.90835L15.301 9.90765L15.3022 9.90585L15.3057 9.9006L15.3165 9.88389C15.3255 9.87002 15.3376 9.85073 15.3522 9.82658C15.3814 9.77837 15.4208 9.7102 15.4642 9.62647C15.5502 9.46096 15.6567 9.22567 15.7291 8.95788C15.8698 8.43677 15.9076 7.6508 15.1979 7.1251C14.9233 6.92162 14.8854 6.61384 14.9908 6.2235C15.0415 6.03555 15.1195 5.86073 15.1874 5.73C15.2208 5.6656 15.2507 5.61411 15.2714 5.57972C15.2818 5.56262 15.2899 5.54984 15.2949 5.54201L15.3003 5.5337C15.3003 5.5337 15.3001 5.53392 14.9375 5.28914Z" fill="currentColor"/>
</svg>
