<svg width="22" height="22" viewBox="0 0 22 22" fill="none" xmlns="http://www.w3.org/2000/svg">
<path d="M18.8595 17.0523C18.7656 17.6494 18.2032 18.0682 17.5987 18.0674C13.3985 18.0609 10.9907 17.4614 9.18271 17.4614C7.97117 17.4614 6.75963 18.0672 4.94231 18.0674C4.1851 18.0676 3.125 17.4614 3.125 16.2499C3.125 14.4326 4.33654 14.2012 4.33654 13.5239C4.33654 10.6085 3.125 8.56427 3.125 4.74023H8.57694V11.6042C8.57694 12.172 8.97089 12.6573 9.52416 12.7857C11.6928 13.2889 14.4148 14.286 16.4522 15.6445H17.6637C18.3971 15.6443 18.9784 16.2963 18.8595 17.0523Z" fill="currentColor"/>
<path d="M10.4601 10.4392C10.3529 10.3534 10.3826 10.1648 10.5092 10.1262L11.705 9.76297L10.9139 8.40423C10.8549 8.30286 10.9007 8.16596 11.0041 8.13446L12.1848 7.77564C12.2571 7.75363 12.3328 7.7926 12.3659 7.86852L13.4068 10.2559C13.4502 10.3552 13.4026 10.4746 13.3081 10.5032L12.6716 10.6967C12.5745 10.7261 12.5276 10.8513 12.5765 10.9511L13.3048 12.4389C13.3588 12.5491 13.2439 12.6658 13.1532 12.5933L10.4601 10.4392Z" fill="currentColor"/>
<path d="M14.7741 13.212C14.6675 13.2586 14.5869 13.1161 14.6675 13.0236L15.7563 11.7751C15.8292 11.6915 15.8165 11.5584 15.7302 11.5047L15.1655 11.1532C15.0817 11.1011 15.0665 10.9735 15.1342 10.8887L16.7576 8.85206C16.8093 8.78724 16.8927 8.76927 16.9567 8.80925L18.0043 9.46127C18.096 9.51841 18.1049 9.66258 18.0217 9.74517L16.9058 10.8527L17.9669 11.5132C18.0794 11.5833 18.0592 11.7733 17.9334 11.8282L14.7741 13.212Z" fill="currentColor"/>
</svg>
