<svg width="22" height="22" viewBox="0 0 22 22" fill="none" xmlns="http://www.w3.org/2000/svg">
<path d="M13.8066 10.3485H15.1013L15.3367 9.25977H14.042L13.8066 10.3485Z" fill="currentColor"/>
<path d="M18.6319 4.875H4.24314C3.62522 4.875 3.125 5.37522 3.125 5.99314V13.673C3.125 14.2909 3.62522 14.7912 4.24314 14.7912H6.3323V17.3511C6.3323 17.6748 6.74425 17.8513 6.97965 17.6159L10.0104 14.7617H18.6319C19.2498 14.7617 19.75 14.2615 19.75 13.6436V5.99314C19.75 5.37522 19.2498 4.875 18.6319 4.875ZM9.4219 7.40553C9.4219 7.11128 9.6573 6.87589 9.95155 6.87589C10.2458 6.87589 10.4812 7.11128 10.4812 7.40553V10.4657C10.4812 10.76 10.2458 10.9954 9.95155 10.9954C9.6573 10.9954 9.4219 10.76 9.4219 10.4657V7.40553ZM6.71482 12.7608C6.36173 12.7608 6.06748 12.4666 6.06748 12.1135C6.06748 11.7604 6.36173 11.4662 6.71482 11.4662C7.06792 11.4662 7.36217 11.7604 7.36217 12.1135C7.36217 12.4666 7.06792 12.7608 6.71482 12.7608ZM8.09779 9.43584C7.89181 9.73009 7.59757 9.96549 7.24447 10.0832V10.4657C7.24447 10.76 7.00907 10.9954 6.71482 10.9954C6.42058 10.9954 6.18518 10.76 6.18518 10.4657V9.84779C6.18518 9.49469 6.45 9.17102 6.8031 9.11217C6.97965 9.08274 7.12677 8.99447 7.21504 8.84735C7.30332 8.70022 7.33274 8.52367 7.30332 8.34712C7.24447 8.14115 7.09734 7.99403 6.89137 7.93518C6.50885 7.8469 6.2146 8.05288 6.15575 8.3177C6.06748 8.58252 5.77323 8.72965 5.50841 8.64137C5.24358 8.5531 5.09646 8.25885 5.18473 7.99403C5.44956 7.17013 6.3323 6.69934 7.18562 6.93473C7.74469 7.08186 8.18606 7.52323 8.33319 8.0823C8.42146 8.5531 8.36261 9.02389 8.09779 9.43584ZM9.95155 12.7608C9.59845 12.7608 9.3042 12.4666 9.3042 12.1135C9.3042 11.7604 9.59845 11.4662 9.95155 11.4662C10.3046 11.4662 10.5989 11.7604 10.5989 12.1135C10.5989 12.4666 10.3046 12.7608 9.95155 12.7608ZM17.2489 9.25929H16.3956L16.1602 10.348H16.7487C17.0429 10.348 17.2783 10.5834 17.2783 10.8777C17.2783 11.1719 17.0429 11.4073 16.7487 11.4073H15.9248L15.7482 12.3195C15.6894 12.5549 15.4834 12.7314 15.248 12.7314C15.2186 12.7314 15.1892 12.7314 15.1303 12.7314C14.8361 12.6726 14.6595 12.4077 14.7184 12.1135L14.8655 11.4073H13.5708L13.3942 12.3195C13.3354 12.5549 13.1294 12.7314 12.894 12.7314C12.8646 12.7314 12.8352 12.7314 12.7763 12.7314C12.4821 12.6726 12.3055 12.4077 12.3644 12.1135L12.5115 11.4073H11.8936C11.5993 11.4073 11.3639 11.1719 11.3639 10.8777C11.3639 10.5834 11.5993 10.348 11.8936 10.348H12.7469L12.9823 9.25929H12.3938C12.0996 9.25929 11.8642 9.02389 11.8642 8.72965C11.8642 8.4354 12.0996 8.2 12.3938 8.2H13.1883L13.3648 7.28783C13.4237 6.99358 13.6885 6.81704 13.9827 6.87589C14.277 6.93473 14.4535 7.19956 14.3947 7.49381L14.2476 8.2H15.5423L15.7188 7.28783C15.7777 6.99358 16.0425 6.81704 16.3367 6.87589C16.631 6.93473 16.8075 7.19956 16.7487 7.49381L16.6015 8.2H17.2195C17.5137 8.2 17.7491 8.4354 17.7491 8.72965C17.7491 9.02389 17.5137 9.25929 17.2489 9.25929Z" fill="currentColor"/>
</svg>
