<svg width="22" height="22" viewBox="0 0 22 22" fill="none" xmlns="http://www.w3.org/2000/svg">
<path d="M2.25 5.75V12.75H4V11H9.25L11 9.25L9.25 7.5H4V5.75H2.25ZM18 5.75V7.5H11L12.75 9.25L11 11H18V12.75H19.75V5.75H18ZM11 12.75C11 12.75 9.25 14.6488 9.25 15.8125C9.25 16.2766 9.43437 16.7217 9.76256 17.0499C10.0908 17.3781 10.5359 17.5625 11 17.5625C11.4641 17.5625 11.9092 17.3781 12.2374 17.0499C12.5656 16.7217 12.75 16.2766 12.75 15.8125C12.75 14.6488 11 12.75 11 12.75Z" fill="currentColor"/>
</svg>
