<svg width="22" height="22" viewBox="0 0 22 22" fill="none" xmlns="http://www.w3.org/2000/svg">
<path fill-rule="evenodd" clip-rule="evenodd" d="M4.24314 4.875H18.6319C19.2498 4.875 19.75 5.37522 19.75 5.99314V13.6436C19.75 14.2615 19.2498 14.7617 18.6319 14.7617H10.0104L6.97965 17.6159C6.74425 17.8513 6.3323 17.6748 6.3323 17.3511V14.7912H4.24314C3.62522 14.7912 3.125 14.2909 3.125 13.673V5.99314C3.125 5.37522 3.62522 4.875 4.24314 4.875ZM10.9374 6.9359C10.9374 6.64165 11.1728 6.40625 11.467 6.40625C11.7613 6.40625 11.9967 6.64165 11.9967 6.9359V9.99607C11.9967 10.2903 11.7613 10.5257 11.467 10.5257C11.1728 10.5257 10.9374 10.2903 10.9374 9.99607V6.9359ZM11.467 12.2912C11.1139 12.2912 10.8197 11.997 10.8197 11.6439C10.8197 11.2908 11.1139 10.9965 11.467 10.9965C11.8201 10.9965 12.1144 11.2908 12.1144 11.6439C12.1144 11.997 11.8201 12.2912 11.467 12.2912ZM7.69784 7.29358C7.40482 7.32049 7.19194 7.57643 7.21886 7.86945L7.49874 10.9168C7.52565 11.2098 7.78159 11.4227 8.07461 11.3958C8.36762 11.3689 8.5805 11.1129 8.55359 10.8199L8.27371 7.77256C8.2468 7.47955 7.99085 7.26667 7.69784 7.29358ZM7.53224 12.5684C7.56454 12.9201 7.88446 13.1862 8.23608 13.1539C8.5877 13.1216 8.8538 12.8016 8.82151 12.45C8.78921 12.0984 8.46928 11.8323 8.11767 11.8646C7.76605 11.8969 7.49995 12.2168 7.53224 12.5684ZM14.5662 7.2767C14.6215 6.98769 14.8969 6.8007 15.1859 6.85598C15.4749 6.91125 15.6619 7.18668 15.6066 7.47569L15.0318 10.4814C14.9765 10.7704 14.7011 10.9574 14.4121 10.9021C14.1231 10.8468 13.9361 10.5714 13.9914 10.2824L14.5662 7.2767ZM14.0804 12.6362C13.7336 12.5698 13.4999 12.2256 13.5662 11.8787C13.6325 11.5319 13.9768 11.2982 14.3236 11.3645C14.6704 11.4309 14.9042 11.7751 14.8379 12.122C14.7715 12.4688 14.4272 12.7025 14.0804 12.6362Z" fill="currentColor"/>
</svg>
