<svg width="22" height="22" viewBox="0 0 22 22" fill="none" xmlns="http://www.w3.org/2000/svg">
<path fill-rule="evenodd" clip-rule="evenodd" d="M14.2491 16.9386L17.3999 18.3635L16.6173 14.9719L20.0892 14.6307L17.721 12.082L20.5307 10.055L17.1993 9.03154L18.6241 5.86067L15.2526 6.64335L14.8913 3.19151L12.3426 5.55963L10.3157 2.75L9.31221 6.06135L6.14134 4.63647L6.92403 8.0281L3.45212 8.36927L5.82024 10.918L3.01061 12.945L6.34203 13.9685L2.46875 19.3068L8.2887 16.3567L8.64994 19.8085L11.1987 17.4404L13.2256 20.25L14.2491 16.9386ZM10.4701 8.58715C10.4701 8.2929 10.7055 8.0575 10.9998 8.0575C11.294 8.0575 11.5294 8.2929 11.5294 8.58715V11.6473C11.5294 11.9416 11.294 12.177 10.9998 12.177C10.7055 12.177 10.4701 11.9416 10.4701 11.6473V8.58715ZM10.9998 13.9425C10.6467 13.9425 10.3524 13.6482 10.3524 13.2951C10.3524 12.942 10.6467 12.6478 10.9998 12.6478C11.3529 12.6478 11.6471 12.942 11.6471 13.2951C11.6471 13.6482 11.3529 13.9425 10.9998 13.9425Z" fill="currentColor"/>
</svg>
