<svg width="22" height="22" viewBox="0 0 22 22" fill="none" xmlns="http://www.w3.org/2000/svg">
<path d="M17.49 8.44423H17.0461L16.5705 5.47496C16.4913 4.95716 16.095 4.54923 15.5718 4.47075L13.9233 4.21967C12.9563 4.07847 11.9894 4 11.0065 4C10.0237 4 9.05679 4.07848 8.08979 4.21967L6.45705 4.47075C5.93393 4.54922 5.52181 4.97291 5.45835 5.4906L4.96697 8.44417H4.52311C4.23784 8.44417 4 8.67949 4 8.96197V10.484C4 10.7664 4.23773 11.0018 4.52311 11.0018H4.7133V14.9873C4.7133 15.5992 5.17295 16.0856 5.77538 16.1484V17.4822C5.77538 17.7646 6.01311 18 6.29849 18H7.26546C7.55074 18 7.78857 17.7647 7.78857 17.4822V16.1642H14.2086V17.4822C14.2086 17.7646 14.4463 18 14.7317 18H15.6987C15.984 18 16.2218 17.7647 16.2218 17.4822V16.1484C16.8083 16.0857 17.2839 15.5836 17.2839 14.9873V11.0018H17.4741C17.7593 11.0018 17.9972 10.7665 17.9972 10.484V8.96197C18.0288 8.67948 17.7912 8.44423 17.49 8.44423ZM7.2972 14.0459C6.80582 14.0459 6.40952 13.6536 6.40952 13.1672C6.40952 12.6808 6.80582 12.2885 7.2972 12.2885C7.78858 12.2885 8.18488 12.6808 8.18488 13.1672C8.18488 13.6379 7.78858 14.0459 7.2972 14.0459ZM14.7159 14.0459C14.2245 14.0459 13.8282 13.6536 13.8282 13.1672C13.8282 12.6808 14.2245 12.2885 14.7159 12.2885C15.2073 12.2885 15.6036 12.6808 15.6036 13.1672C15.6195 13.6379 15.2073 14.0459 14.7159 14.0459ZM6.0449 10.7628L6.6473 5.99276H15.3817L15.9841 10.7628H6.0449Z" fill="currentColor"/>
</svg>
