<svg width="22" height="22" viewBox="0 0 22 22" fill="none" xmlns="http://www.w3.org/2000/svg">
<path fill-rule="evenodd" clip-rule="evenodd" d="M6.21794 11.9997C6.63881 12.5142 7.70981 14.4204 7.93731 15.375H14.0623C14.2898 14.4213 15.3595 12.5151 15.7804 12.001C16.4996 11.1237 16.9523 10.0586 17.085 8.93194C17.2159 7.80744 17.0201 6.66904 16.5211 5.65288C16.0173 4.62916 15.234 3.76898 14.2618 3.17181C13.2811 2.56858 12.1521 2.24946 11.0007 2.25C9.847 2.25 8.7165 2.56938 7.73956 3.17094C6.76712 3.76788 5.98353 4.62791 5.47944 5.65156C4.98012 6.66734 4.78388 7.80541 4.91419 8.92975C5.045 10.0528 5.49694 11.1173 6.21794 11.9997ZM11.4373 5.75L8.81231 9.6875H10.5623V12.3125L13.1873 8.375H11.4373V5.75Z" fill="currentColor"/>
<path d="M7.9375 16.6875C7.9375 16.5715 7.98359 16.4602 8.06564 16.3781C8.14769 16.2961 8.25897 16.25 8.375 16.25H13.625C13.741 16.25 13.8523 16.2961 13.9344 16.3781C14.0164 16.4602 14.0625 16.5715 14.0625 16.6875C14.0625 16.8035 14.0164 16.9148 13.9344 16.9969C13.8523 17.0789 13.741 17.125 13.625 17.125H8.375C8.25897 17.125 8.14769 17.0789 8.06564 16.9969C7.98359 16.9148 7.9375 16.8035 7.9375 16.6875ZM14.0625 18H7.9375V18.875C7.9375 19.1071 8.02969 19.3296 8.19378 19.4937C8.35788 19.6578 8.58044 19.75 8.8125 19.75H13.1875C13.4196 19.75 13.6421 19.6578 13.8062 19.4937C13.9703 19.3296 14.0625 19.1071 14.0625 18.875V18Z" fill="currentColor"/>
</svg>
