<svg width="24" height="25" viewBox="0 0 24 25" fill="none" xmlns="http://www.w3.org/2000/svg">
<path d="M10.8 16.1V18.5H13.2V16.1H10.8Z" fill="currentColor"/>
<path d="M10.8 6.5V13.7H13.2V6.5H10.8Z" fill="currentColor"/>
<path fill-rule="evenodd" clip-rule="evenodd" d="M12 24.5C18.6274 24.5 24 19.1274 24 12.5C24 5.87258 18.6274 0.5 12 0.5C5.37258 0.5 0 5.87258 0 12.5C0 19.1274 5.37258 24.5 12 24.5ZM12 24.5C18.624 24.5 24 19.124 24 12.5C24 5.876 18.624 0.5 12 0.5C5.376 0.5 0 5.876 0 12.5C0 19.124 5.376 24.5 12 24.5Z" fill="currentColor"/>
</svg>
