<svg width="16" height="18" viewBox="0 0 16 18" fill="none" xmlns="http://www.w3.org/2000/svg">
<path fill-rule="evenodd" clip-rule="evenodd" d="M6.96023 0.389637C7.73716 -0.129882 8.73416 -0.129877 9.51114 0.389637L10.4173 0.995576C11.6878 1.84507 13.1355 2.03468 14.5894 2.22514C15.0594 2.28673 15.5301 2.34837 15.9956 2.43243C15.9956 2.43243 16.0059 3.32441 15.9951 3.72936L15.9022 7.20827C15.8225 10.1918 14.6097 13.021 12.5294 15.0767C11.5479 16.0465 10.5329 16.9225 9.36658 17.6504C8.67507 18.0819 7.81956 18.1161 7.09825 17.741C5.7516 17.0407 4.55899 16.1525 3.4703 15.0767C1.3899 13.021 0.17716 10.1918 0.0974833 7.20827L0.0048756 3.74045C-0.0060945 3.32976 0.0048756 2.43243 0.0048756 2.43243C0.382839 2.38359 0.768073 2.34355 1.15622 2.30322C2.86976 2.12507 4.6401 1.94101 6.09245 0.969894L6.96023 0.389637ZM7.111 8.11111V5H8.88878V8.11111H11.9999V9.88889H8.88878V13H7.111V9.88889H3.99989V8.11111H7.111Z" fill="white"/>
</svg>
