<svg width="40" height="40" viewBox="0 0 40 40" fill="none" xmlns="http://www.w3.org/2000/svg">
<path fill-rule="evenodd" clip-rule="evenodd" d="M20 8C20.2525 8 20.4833 8.14267 20.5963 8.36853L31.9296 31.0352C32.0329 31.2419 32.0219 31.4873 31.9005 31.6838C31.7789 31.8803 31.5644 32 31.3333 32H8.66667C8.43561 32 8.22104 31.8803 8.09957 31.6838C7.97809 31.4873 7.96705 31.2419 8.07038 31.0352L19.4037 8.36853C19.5167 8.14267 19.7475 8 20 8ZM9.74535 30.6667H30.2547L20 10.1574L9.74535 30.6667Z" fill="white"/>
<path d="M18.666 17.3333C18.666 16.5969 19.2629 16 19.9993 16C20.7357 16 21.3327 16.5969 21.3327 17.3333V24C21.3327 24.7364 20.7357 25.3333 19.9993 25.3333C19.2629 25.3333 18.666 24.7364 18.666 24V17.3333Z" fill="white"/>
<path d="M18.666 27.9769C18.666 27.2529 19.2529 26.666 19.9769 26.666H20.0218C20.7458 26.666 21.3327 27.2529 21.3327 27.9769C21.3327 28.7008 20.7458 29.2877 20.0218 29.2877H19.9769C19.2529 29.2877 18.666 28.7008 18.666 27.9769Z" fill="white"/>
</svg>
