<svg width="40" height="40" viewBox="0 0 40 40" fill="none" xmlns="http://www.w3.org/2000/svg">
<path fill-rule="evenodd" clip-rule="evenodd" d="M19.9993 6.66602C12.6355 6.66602 6.66602 12.6355 6.66602 19.9993C6.66602 27.3631 12.6355 33.3327 19.9993 33.3327C27.3631 33.3327 33.3327 27.3631 33.3327 19.9993C33.3327 12.6355 27.3631 6.66602 19.9993 6.66602ZM19.9993 7.99935C13.3719 7.99935 7.99935 13.3719 7.99935 19.9993C7.99935 26.6267 13.3719 31.9993 19.9993 31.9993C26.6267 31.9993 31.9993 26.6267 31.9993 19.9993C31.9993 13.3719 26.6267 7.99935 19.9993 7.99935Z" fill="white"/>
<path d="M21.3327 12.6673C21.3327 11.9309 20.7357 11.334 19.9993 11.334C19.2629 11.334 18.666 11.9309 18.666 12.6673V22.0007C18.666 22.7371 19.2629 23.334 19.9993 23.334C20.7357 23.334 21.3327 22.7371 21.3327 22.0007V12.6673Z" fill="white"/>
<path d="M19.9993 26C20.7357 26 21.3327 26.5969 21.3327 27.3333C21.3327 28.0697 20.7357 28.6667 19.9993 28.6667C19.2629 28.6667 18.666 28.0697 18.666 27.3333C18.666 26.5969 19.2629 26 19.9993 26Z" fill="white"/>
</svg>
