<svg width="40" height="40" viewBox="0 0 40 40" fill="none" xmlns="http://www.w3.org/2000/svg">
<path fill-rule="evenodd" clip-rule="evenodd" d="M16.6554 21.9884C16.6557 22.3566 16.3575 22.6553 15.9893 22.6556C15.6211 22.6559 15.3224 22.3577 15.3221 21.9895C15.3218 21.6213 15.62 21.3226 15.9882 21.3223C16.3564 21.322 16.6551 21.6202 16.6554 21.9884ZM19.9893 22.6523C19.9896 23.0205 19.6914 23.3193 19.3232 23.3195C18.955 23.3199 18.6562 23.0216 18.656 22.6535C18.6556 22.2853 18.9539 21.9865 19.322 21.9862C19.6902 21.9859 19.989 22.2841 19.9893 22.6523ZM17.3254 25.9879C17.6935 25.9875 17.9918 25.6889 17.9914 25.3207C17.9912 24.9525 17.6924 24.6542 17.3242 24.6545C16.956 24.6549 16.6578 24.9535 16.6581 25.3217C16.6584 25.6899 16.9572 25.9882 17.3254 25.9879ZM21.3242 24.6513C21.3246 25.0195 21.0263 25.3182 20.6581 25.3185C20.29 25.3188 19.9912 25.0205 19.9909 24.6523C19.9906 24.2841 20.2888 23.9855 20.657 23.9851C21.0252 23.9849 21.324 24.2831 21.3242 24.6513ZM21.9936 27.9841C22.3618 27.9837 22.6601 27.685 22.6598 27.3168C22.6594 26.9487 22.3608 26.6504 21.9926 26.6507C21.6244 26.651 21.3261 26.9497 21.3264 27.3179C21.3268 27.6861 21.6254 27.9843 21.9936 27.9841ZM23.9909 24.6491C23.9912 25.0173 23.693 25.316 23.3248 25.3163C22.9566 25.3166 22.6579 25.0183 22.6576 24.6501C22.6573 24.282 22.9555 23.9833 23.3237 23.9829C23.6919 23.9827 23.9906 24.2809 23.9909 24.6491ZM18.6608 28.6535C19.029 28.6531 19.3273 28.3544 19.327 27.9862C19.3267 27.6181 19.028 27.3198 18.6598 27.3201C18.2916 27.3204 17.9934 27.6191 17.9936 27.9873C17.994 28.3555 18.2927 28.6537 18.6608 28.6535ZM15.9931 27.3223C15.9934 27.6905 15.6952 27.9892 15.327 27.9895C14.9588 27.9898 14.6601 27.6916 14.6598 27.3234C14.6595 26.9552 14.9577 26.6565 15.3259 26.6562C15.6941 26.6559 15.9928 26.9541 15.9931 27.3223ZM13.9914 25.3239C14.3596 25.3236 14.6579 25.0249 14.6576 24.6567C14.6573 24.2885 14.3586 23.9903 13.9904 23.9906C13.6222 23.9909 13.324 24.2896 13.3242 24.6578C13.3246 25.026 13.6233 25.3242 13.9914 25.3239Z" fill="white"/>
<path fill-rule="evenodd" clip-rule="evenodd" d="M19 7.99935C19.5523 7.99935 20 8.44706 20 8.99935V19.3327H21.3333V10.9993C21.3333 10.4471 21.7811 9.99935 22.3333 9.99935C22.8856 9.99935 23.3333 10.4471 23.3333 10.9993V21.3897C23.3333 22.6592 24.9397 23.2103 25.7191 22.2082L27.8435 19.4769C28.2532 18.9501 29.0517 18.9571 29.4521 19.4911C29.7002 19.8219 29.7221 20.2703 29.5075 20.6237L24.7049 28.5321C23.3975 30.6849 21.0614 31.9993 18.5427 31.9993C14.5611 31.9993 11.3333 28.7716 11.3333 24.7899V14.9993C11.3333 14.4471 11.7811 13.9993 12.3333 13.9993C12.8856 13.9993 13.3333 14.4471 13.3333 14.9993V20.7444H14.6667V10.9993C14.6667 10.4471 15.1144 9.99935 15.6667 9.99935C16.2189 9.99935 16.6667 10.4471 16.6667 10.9993V19.3327H18V8.99935C18 8.44706 18.4477 7.99935 19 7.99935ZM16.6691 8.89172C16.7253 7.65302 17.7474 6.66602 19 6.66602C20.2526 6.66602 21.2747 7.65302 21.3309 8.89172C21.6346 8.74702 21.9745 8.66602 22.3333 8.66602C23.622 8.66602 24.6667 9.71068 24.6667 10.9993V21.3897L26.791 18.6583C27.7405 17.4376 29.5909 17.4538 30.5188 18.6911C31.0937 19.4576 31.1445 20.4968 30.6471 21.3158L25.8445 29.2242C24.2953 31.7751 21.5272 33.3327 18.5427 33.3327C13.8247 33.3327 10 29.5079 10 24.7899V14.9993C10 13.7107 11.0447 12.666 12.3333 12.666C12.6912 12.666 13.0303 12.7465 13.3333 12.8905V10.9993C13.3333 9.71068 14.378 8.66602 15.6667 8.66602C16.0255 8.66602 16.3654 8.74702 16.6691 8.89172Z" fill="white"/>
</svg>
