<svg width="40" height="40" viewBox="0 0 40 40" fill="none" xmlns="http://www.w3.org/2000/svg">
<path d="M19.6578 14.694C20.4205 14.2945 20.6673 13.8588 20.6673 13.556C20.6673 13.2916 20.4847 12.9279 19.9103 12.5635L20.6244 11.4375C21.3826 11.9184 22.0007 12.6386 22.0007 13.556C22.0007 14.6034 21.2028 15.3899 20.2765 15.8751C19.3186 16.3768 18.0415 16.6672 16.6673 16.6672C15.2932 16.6672 14.0161 16.3768 13.0581 15.8751C12.1319 15.3899 11.334 14.6034 11.334 13.556C11.334 12.6386 11.9521 11.9184 12.7103 11.4375L13.4244 12.5635C12.8499 12.9279 12.6673 13.2916 12.6673 13.556C12.6673 13.8588 12.9141 14.2945 13.6769 14.694C14.4079 15.077 15.4641 15.3338 16.6673 15.3338C17.8705 15.3338 18.9267 15.077 19.6578 14.694Z" fill="white"/>
<path fill-rule="evenodd" clip-rule="evenodd" d="M19.3295 20.3619C22.8128 19.5407 25.3326 17.1521 25.3326 14.3333C25.3326 10.8355 21.4524 8 16.6659 8C11.8795 8 7.99927 10.8355 7.99927 14.3333C7.99927 16.3172 9.24751 18.0881 11.2014 19.2493C8.21853 21.0237 6.86026 24.2605 8.16706 26.5239C9.48801 28.8119 13.0319 29.2389 16.0825 27.4776C19.0383 25.7711 20.4465 22.6363 19.3295 20.3619ZM22.0075 17.7351C23.3253 16.7721 23.9993 15.5534 23.9993 14.3333C23.9993 13.1133 23.3253 11.8945 22.0075 10.9315C20.6907 9.96925 18.8065 9.33333 16.6659 9.33333C14.5253 9.33333 12.6411 9.96925 11.3243 10.9315C10.0066 11.8945 9.3326 13.1133 9.3326 14.3333C9.3326 15.5534 10.0066 16.7721 11.3243 17.7351C12.6411 18.6974 14.5253 19.3333 16.6659 19.3333C18.8065 19.3333 20.6907 18.6974 22.0075 17.7351ZM11.9655 20.3469C12.2131 20.2039 12.463 20.0789 12.713 19.9711C13.4366 20.2425 14.2192 20.4418 15.0431 20.5558L14.9485 21.3864C15.3789 21.4354 15.6018 21.6004 15.698 21.7669C15.807 21.9557 15.8321 22.2938 15.5699 22.7752C15.3142 23.2448 14.8287 23.7493 14.1546 24.1385C13.4805 24.5277 12.8009 24.6959 12.2663 24.6826C11.7183 24.6689 11.4381 24.4781 11.3291 24.2893C11.2329 24.1227 11.2015 23.8472 11.3743 23.4499L10.1515 22.9183C9.87251 23.56 9.79939 24.3065 10.1744 24.9559C10.6035 25.6993 11.4287 25.9954 12.2331 26.0155C13.0507 26.0359 13.9701 25.7847 14.8213 25.2932C15.6725 24.8018 16.3497 24.1312 16.7409 23.4129C17.1257 22.7063 17.2818 21.8435 16.8527 21.1003C16.7565 20.9337 16.6401 20.7894 16.5083 20.6657C16.5607 20.6663 16.6133 20.6667 16.6659 20.6667C17.0921 20.6667 17.5112 20.6442 17.9209 20.6007C17.9713 20.6691 18.0175 20.7397 18.0595 20.8125C18.4631 21.5116 18.5043 22.449 18.0615 23.4855C17.6186 24.5224 16.7154 25.5726 15.4158 26.3229C14.1161 27.0733 12.7551 27.3303 11.6356 27.1955C10.5167 27.0607 9.72535 26.5563 9.32176 25.8573C8.91817 25.1583 8.87705 24.2208 9.31979 23.1843C9.76271 22.1474 10.6659 21.0973 11.9655 20.3469Z" fill="white"/>
<path d="M28.3985 26.9117C28.3358 27.1455 28.0936 27.4192 27.5389 27.5827C26.9972 27.7425 26.2603 27.7561 25.4706 27.5445C24.6808 27.3329 24.0495 26.9527 23.6602 26.5434C23.2617 26.1245 23.1887 25.7663 23.2513 25.5326C23.3065 25.3266 23.4959 25.0941 23.9224 24.9261L23.4338 23.6855C22.7592 23.9513 22.163 24.4428 21.9634 25.1875C21.735 26.0397 22.1189 26.8577 22.6942 27.4624C23.2787 28.0769 24.1382 28.5679 25.1255 28.8324C26.1127 29.0969 27.1026 29.1015 27.916 28.8616C28.7166 28.6255 29.458 28.1091 29.6864 27.2569C29.8859 26.5122 29.6153 25.7884 29.164 25.221L28.1205 26.051C28.4059 26.4097 28.4537 26.7057 28.3985 26.9117Z" fill="white"/>
<path fill-rule="evenodd" clip-rule="evenodd" d="M32.1641 28.3039C31.4499 30.9693 27.9899 32.3581 24.4359 31.4059C20.8819 30.4536 18.5798 27.5208 19.294 24.8553C20.0083 22.1898 23.4683 20.801 27.0223 21.7533C30.5763 22.7055 32.8783 25.6383 32.1641 28.3039ZM30.8763 27.9587C30.6521 28.7952 29.9738 29.5304 28.8683 29.9741C27.7623 30.4181 26.3063 30.5267 24.781 30.1179C23.2557 29.7093 22.0491 28.8873 21.3132 27.9498C20.5776 27.0127 20.3578 26.0369 20.5819 25.2004C20.8061 24.3639 21.4843 23.6287 22.5899 23.185C23.6959 22.7411 25.1519 22.6325 26.6772 23.0412C28.2025 23.4499 29.4091 24.2719 30.145 25.2094C30.8805 26.1465 31.1004 27.1223 30.8763 27.9587Z" fill="white"/>
<path fill-rule="evenodd" clip-rule="evenodd" d="M27.8899 20.5104C29.4865 20.9382 31.0409 20.3143 31.3618 19.1168C31.6827 17.9193 30.6485 16.6017 29.0518 16.1739C27.4551 15.7461 25.9007 16.37 25.5799 17.5675C25.259 18.765 26.2932 20.0826 27.8899 20.5104ZM29.6076 19.1857C29.9429 19.0511 30.0465 18.8742 30.0739 18.7717C30.1014 18.6692 30.1002 18.4642 29.8771 18.18C29.6537 17.8954 29.2533 17.6083 28.7067 17.4618C28.1601 17.3154 27.6699 17.3638 27.3341 17.4986C26.9987 17.6332 26.8952 17.8101 26.8677 17.9126C26.8403 18.0151 26.8415 18.2201 27.0646 18.5043C27.288 18.789 27.6883 19.076 28.2349 19.2225C28.7815 19.369 29.2718 19.3205 29.6076 19.1857Z" fill="white"/>
</svg>
