<svg width="40" height="40" viewBox="0 0 40 40" fill="none" xmlns="http://www.w3.org/2000/svg">
<path fill-rule="evenodd" clip-rule="evenodd" d="M27.3327 10.1531V8H25.9993V10H13.9993V8H12.666V10.1531C12.666 13.7683 14.3923 17.0977 17.2018 19.1917C17.6177 18.9289 18.0515 18.6889 18.5017 18.4738C17.2547 17.6594 16.2187 16.5818 15.4561 15.3333H24.5426C23.4923 17.0526 21.9235 18.4479 19.9993 19.2781C19.9958 19.2796 19.9923 19.2811 19.9887 19.2827C19.9103 19.3164 19.8313 19.3492 19.7517 19.381C19.3014 19.5611 18.8673 19.7683 18.4511 20C15.2535 21.7805 13.1108 25.0163 12.7277 28.6667H12.666V29.8469V30V32H13.9993V30H25.9993V32H27.3327V30V29.8469V28.6667H27.271C26.9402 25.5149 25.2976 22.6721 22.7969 20.8083C22.381 21.0711 21.9472 21.3111 21.497 21.5262C22.7439 22.3406 23.78 23.4182 24.5426 24.6667H15.4561C16.5063 22.9474 18.0751 21.5521 19.9993 20.7219C20.0029 20.7204 20.0064 20.7189 20.0099 20.7173C20.0883 20.6836 20.1673 20.6508 20.2469 20.619C20.6973 20.4389 21.1313 20.2317 21.5475 20C25.086 18.0297 27.3327 14.2773 27.3327 10.1531ZM25.225 26H14.7737C14.4199 26.8424 14.1801 27.7387 14.0694 28.6667H25.9293C25.8186 27.7387 25.5788 26.8424 25.225 26ZM14.7737 14H25.225C25.5788 13.1576 25.8186 12.2613 25.9293 11.3333H14.0694C14.1801 12.2613 14.4199 13.1576 14.7737 14Z" fill="white"/>
</svg>
