<svg width="40" height="40" viewBox="0 0 40 40" fill="none" xmlns="http://www.w3.org/2000/svg">
<path fill-rule="evenodd" clip-rule="evenodd" d="M8.46266 18.7922C9.71529 17.3742 11.6163 15.7497 14.0567 14.6441C12.7779 16.0621 11.9993 17.9401 11.9993 20C11.9993 22.0599 12.7779 23.9379 14.0567 25.3559C11.6163 24.2503 9.71529 22.6258 8.46266 21.2078C7.84491 20.5085 7.84491 19.4915 8.46266 18.7922ZM7.46338 17.9095C9.73532 15.3375 14.0535 12.0618 19.8805 12.0009C19.9201 12.0003 19.9597 12 19.9993 12H20.0187H20.0458C25.9564 12 30.3348 15.3133 32.6282 17.9095C33.6913 19.113 33.6913 20.887 32.6282 22.0905C30.3348 24.6867 25.9564 28 20.0458 28H20.0187H19.9993C19.9597 28 19.9201 27.9997 19.8805 27.9991C14.0535 27.9382 9.73532 24.6625 7.46339 22.0905C6.40023 20.887 6.40022 19.113 7.46338 17.9095ZM20.0183 13.3333C19.9778 13.3335 19.9374 13.3337 19.8971 13.3341C16.2623 13.3887 13.3327 16.3523 13.3327 20C13.3327 23.6477 16.2623 26.6113 19.8971 26.6659C19.9374 26.6663 19.9778 26.6665 20.0183 26.6667C23.6915 26.6565 26.666 23.6756 26.666 20C26.666 16.3244 23.6915 13.3435 20.0183 13.3333ZM27.9993 20C27.9993 22.0939 27.1949 23.9999 25.8781 25.4259C28.3939 24.3196 30.3496 22.656 31.6289 21.2078C32.2467 20.5085 32.2467 19.4915 31.6289 18.7922C30.3496 17.344 28.3939 15.6804 25.8781 14.5741C27.1949 16.0001 27.9993 17.9061 27.9993 20ZM20.0457 24C22.2549 24 24.0457 22.2091 24.0457 20C24.0457 19.3825 23.9058 18.7977 23.6559 18.2755C23.4146 18.5171 23.081 18.6667 22.7125 18.6667C21.9761 18.6667 21.3791 18.0697 21.3791 17.3333C21.3791 16.9648 21.5287 16.6312 21.7703 16.3899C21.2481 16.1399 20.6633 16 20.0457 16C17.8366 16 16.0457 17.7909 16.0457 20C16.0457 22.2091 17.8366 24 20.0457 24Z" fill="white"/>
</svg>
