<svg width="40" height="40" viewBox="0 0 40 40" fill="none" xmlns="http://www.w3.org/2000/svg">
<path fill-rule="evenodd" clip-rule="evenodd" d="M8.17091 15.0866C7.84343 14.5616 8.01079 13.9693 8.54449 13.4836C8.80435 13.2472 9.10601 13.089 9.36624 13.0284C9.63269 12.9664 9.76731 13.0212 9.82161 13.0647C11.0259 14.03 11.8054 14.2801 12.4847 14.3395C12.6779 14.3564 12.8239 14.361 12.9429 14.3648C13.2394 14.3742 13.368 14.3784 13.6407 14.5532L14.3604 13.4308C13.7516 13.0404 13.205 13.0286 12.8288 13.0205C12.7437 13.0186 12.6673 13.017 12.6008 13.0112C12.2456 12.9802 11.7085 12.8684 10.6555 12.0244C10.1726 11.6373 9.56841 11.6124 9.06406 11.7298C8.55349 11.8486 8.05237 12.1287 7.64712 12.4975C6.85063 13.2222 6.23853 14.508 7.03961 15.7923C7.45347 16.4557 7.91292 17.0253 8.33656 17.4866C8.39734 17.3726 8.47544 17.2681 8.57141 17.1756C8.81346 16.9423 9.13895 16.8144 9.5067 16.7846C9.07853 16.3406 8.59501 15.7665 8.17091 15.0866Z" fill="white"/>
<path fill-rule="evenodd" clip-rule="evenodd" d="M12.2978 20.3937C12.2343 20.1067 12.0291 19.7175 11.6365 19.3556C11.2439 18.9937 10.8265 18.809 10.5206 18.7555C10.3509 18.7259 10.2615 18.7397 10.2229 18.7513C10.2115 18.7879 10.1988 18.8725 10.2341 19.0317C10.2976 19.3187 10.5028 19.7079 10.8954 20.0698C11.288 20.4317 11.7054 20.6163 12.0114 20.6698C12.181 20.6995 12.2704 20.6857 12.309 20.6741C12.3204 20.6375 12.3331 20.5529 12.2978 20.3937ZM12.2988 20.6969C12.2988 20.6969 12.2996 20.6948 12.3024 20.6913C12.3004 20.6952 12.2988 20.6969 12.2988 20.6969ZM12.327 20.6675C12.3308 20.6648 12.3329 20.664 12.3329 20.664C12.3329 20.664 12.3312 20.6655 12.327 20.6675ZM10.2331 18.7285C10.2331 18.7285 10.2323 18.7306 10.2295 18.7341C10.2315 18.7302 10.2331 18.7285 10.2331 18.7285ZM10.2048 18.7579C10.2012 18.7606 10.199 18.7614 10.199 18.7614C10.199 18.7614 10.2007 18.7599 10.2048 18.7579ZM13.2943 21.5823C14.0292 20.8741 13.7167 19.4629 12.5965 18.4303C11.4762 17.3977 9.97241 17.1348 9.23757 17.8431C8.50273 18.5513 8.81517 19.9625 9.93541 20.9951C11.0556 22.0277 12.5595 22.2905 13.2943 21.5823Z" fill="white"/>
<path fill-rule="evenodd" clip-rule="evenodd" d="M31.8301 15.0866C32.1576 14.5616 31.9902 13.9693 31.4565 13.4836C31.1967 13.2472 30.895 13.089 30.6348 13.0284C30.3683 12.9664 30.2337 13.0212 30.1794 13.0647C28.9752 14.03 28.1956 14.2801 27.5164 14.3395C27.3231 14.3564 27.1771 14.361 27.0581 14.3648C26.7616 14.3742 26.633 14.3784 26.3604 14.5532L25.6406 13.4308C26.2494 13.0404 26.796 13.0286 27.1722 13.0205C27.2574 13.0186 27.3338 13.017 27.4002 13.0112C27.7554 12.9802 28.2926 12.8684 29.3455 12.0244C29.8284 11.6373 30.4326 11.6124 30.937 11.7298C31.4476 11.8486 31.9486 12.1287 32.3539 12.4975C33.1504 13.2222 33.7625 14.508 32.9614 15.7923C32.5388 16.4697 32.0688 17.0492 31.6378 17.5156C31.575 17.3902 31.492 17.2758 31.388 17.1756C31.1544 16.9504 30.843 16.8234 30.491 16.7881C30.92 16.3436 31.4049 15.7683 31.8301 15.0866Z" fill="white"/>
<path fill-rule="evenodd" clip-rule="evenodd" d="M27.6598 20.3937C27.7234 20.1067 27.9286 19.7175 28.3212 19.3556C28.7138 18.9937 29.1312 18.809 29.4371 18.7555C29.6068 18.7259 29.6962 18.7397 29.7348 18.7513C29.7462 18.7879 29.7588 18.8725 29.7236 19.0317C29.66 19.3187 29.4548 19.7079 29.0622 20.0698C28.6696 20.4317 28.2522 20.6163 27.9463 20.6698C27.7767 20.6995 27.6872 20.6857 27.6486 20.6741C27.6372 20.6375 27.6246 20.5529 27.6598 20.3937ZM27.6588 20.6969C27.6588 20.6969 27.658 20.6948 27.6553 20.6913C27.6573 20.6952 27.6588 20.6969 27.6588 20.6969ZM27.6306 20.6675C27.6269 20.6648 27.6248 20.664 27.6248 20.664C27.6248 20.664 27.6264 20.6655 27.6306 20.6675ZM29.7246 18.7285C29.7246 18.7285 29.7254 18.7306 29.7281 18.7341C29.7262 18.7302 29.7246 18.7285 29.7246 18.7285ZM29.7528 18.7579C29.7565 18.7606 29.7587 18.7614 29.7587 18.7614C29.7587 18.7614 29.757 18.7599 29.7528 18.7579ZM26.6634 21.5823C25.9285 20.8741 26.241 19.4629 27.3612 18.4303C28.4814 17.3977 29.9852 17.1348 30.7201 17.8431C31.4549 18.5513 31.1425 19.9625 30.0222 20.9951C28.902 22.0277 27.3982 22.2905 26.6634 21.5823Z" fill="white"/>
<path fill-rule="evenodd" clip-rule="evenodd" d="M16.4404 17.8068C16.7291 18.4419 17.0964 18.9605 17.3676 19.2331C17.8644 19.7324 18.094 20.5346 18.2294 21.315C18.3711 22.131 18.4349 23.0979 18.4865 24.0667C18.4967 24.2578 18.5064 24.4492 18.5161 24.6402C18.5563 25.4327 18.5962 26.2192 18.668 26.9595C18.7318 27.6163 18.8184 28.2062 18.9423 28.703C19.0286 28.6283 19.1221 28.5487 19.2024 28.4869C19.29 28.4195 19.3968 28.344 19.5148 28.2834C19.6269 28.226 19.7992 28.1553 20.0061 28.1553C20.2172 28.1553 20.3909 28.2285 20.5067 28.292C20.626 28.3574 20.73 28.4382 20.8124 28.509C20.8392 28.5318 20.8666 28.5564 20.8942 28.5819C20.9749 28.1357 21.0199 27.6236 21.0432 27.0578C21.0676 26.4631 21.0674 25.8482 21.0672 25.2161C21.0672 24.9013 21.0671 24.5822 21.07 24.2593C21.0787 23.311 21.114 22.3455 21.2701 21.4926C21.4245 20.6486 21.7126 19.8224 22.2989 19.2331C22.697 18.8331 23.1412 18.2454 23.4772 17.5935C23.8168 16.935 24.0162 16.269 23.9982 15.6993C23.9815 15.1654 23.7781 14.7036 23.2488 14.3468C22.6818 13.9646 21.6828 13.6654 20.0061 13.6654C18.339 13.6654 17.3517 13.9884 16.788 14.3956C16.2531 14.7822 16.0331 15.2923 16.003 15.876C15.9714 16.4858 16.1516 17.1715 16.4404 17.8068ZM16.0072 13.3149C16.8896 12.6773 18.1978 12.332 20.0061 12.332C21.8048 12.332 23.1122 12.6467 23.9942 13.2413C24.9139 13.8614 25.3021 14.7394 25.3309 15.6574C25.3586 16.5397 25.0576 17.4378 24.6623 18.2046C24.2635 18.978 23.7384 19.6768 23.244 20.1736C22.9379 20.4812 22.7172 20.9918 22.5816 21.7326C22.4478 22.4644 22.4119 23.3315 22.4033 24.2714C22.4006 24.5664 22.4006 24.8709 22.4007 25.1786C22.4008 25.8273 22.4009 26.4909 22.3754 27.1125C22.3376 28.0313 22.2426 28.9461 21.9796 29.7119C21.9299 29.8564 21.8262 30.0741 21.5959 30.2147C21.3374 30.3726 21.0726 30.3437 20.8998 30.2854C20.7428 30.2324 20.6175 30.1434 20.5378 30.0806C20.4514 30.0126 20.37 29.9359 20.3021 29.8694C20.2471 29.8156 20.2002 29.7684 20.158 29.7256C20.0965 29.6637 20.0446 29.6114 19.9912 29.5626C19.922 29.6172 19.8602 29.6715 19.7878 29.7351C19.7319 29.7841 19.6698 29.8386 19.5932 29.9031C19.4622 30.0133 19.2195 30.2153 18.9448 30.2944C18.7829 30.341 18.5384 30.3661 18.2907 30.235C18.0495 30.1074 17.9268 29.8954 17.8645 29.7296C17.5808 28.974 17.4334 28.04 17.341 27.0884C17.2658 26.3143 17.224 25.4886 17.1837 24.6939C17.1742 24.5064 17.1648 24.3206 17.155 24.1376C17.1032 23.1638 17.0421 22.2709 16.9158 21.543C16.7832 20.7794 16.6016 20.3536 16.4225 20.1736C16.0179 19.767 15.5672 19.1079 15.2266 18.3586C14.8859 17.6093 14.625 16.7038 14.6714 15.8072C14.7191 14.8846 15.0959 13.9732 16.0072 13.3149ZM19.8664 29.4616C19.8643 29.4605 19.864 29.4602 19.8656 29.4611L19.8664 29.4616Z" fill="white"/>
</svg>
