<svg width="40" height="40" viewBox="0 0 40 40" fill="none" xmlns="http://www.w3.org/2000/svg">
<path d="M16.2733 13.0145L16.6502 13.5645C16.8029 13.4597 16.9053 13.2963 16.9327 13.1131C16.9601 12.93 16.91 12.7437 16.7945 12.5989L16.2733 13.0145ZM14.6673 11.0005L14.308 10.4389C14.1489 10.5407 14.0405 10.7052 14.0097 10.8915C13.9787 11.0778 14.0283 11.2685 14.1461 11.4161L14.6673 11.0005ZM16.9157 9.56185L17.4369 9.14623C17.2241 8.87929 16.844 8.81629 16.5564 9.0003L16.9157 9.56185ZM18.5217 11.5759L18.0005 11.9915C18.1927 12.2327 18.5253 12.3105 18.8046 12.1796L18.5217 11.5759ZM20.3633 10.7127L20.6463 11.3164C20.8804 11.2067 21.03 10.9713 21.03 10.7127H20.3633ZM20.3633 8.66669L20.3633 8.00003C19.9951 8.00003 19.6967 8.29851 19.6967 8.66669H20.3633ZM23.2327 8.66667H23.8993C23.8993 8.48985 23.8291 8.32029 23.7041 8.19526C23.579 8.07023 23.4095 8 23.2327 8V8.66667ZM23.2327 10.7127H22.566C22.566 10.9564 22.6989 11.1806 22.9127 11.2976L23.2327 10.7127ZM12.6673 17.3529L12.0925 17.6905C12.1853 17.8486 12.3391 17.9615 12.5178 18.0026C12.6965 18.0437 12.8841 18.0095 13.0368 17.9079L12.6673 17.3529ZM10.0007 15.5751L9.34563 15.451C9.31211 15.628 9.35162 15.811 9.45517 15.9583C9.55872 16.1057 9.71749 16.2049 9.89535 16.2334L10.0007 15.5751ZM10.5977 12.4234L10.7859 11.7839C10.6053 11.7307 10.4106 11.7564 10.25 11.8546C10.0893 11.9528 9.97769 12.1143 9.94265 12.2993L10.5977 12.4234ZM15.334 16.0215L15.5813 16.6406C15.8641 16.5277 16.0344 16.2374 15.9951 15.9354L15.334 16.0215ZM19.4378 16.9364L18.8401 16.6411L18.4883 17.3532L19.2506 17.5762L19.4378 16.9364ZM29.7807 11.8638L30.4469 11.8883L30.4715 11.2206L29.8037 11.1975L29.7807 11.8638ZM29.6641 15.0316L29.6411 15.6979L30.3059 15.7208L30.3303 15.0561L29.6641 15.0316ZM12.9101 16.5395C11.5735 17.7218 11.0727 19.3368 11.1293 21.0178C11.1854 22.6855 11.7868 24.4496 12.689 26.0457C13.5931 27.6451 14.8223 29.1173 16.1841 30.1967C17.5365 31.2685 19.0812 32 20.6073 32V30.6667C19.4949 30.6667 18.2364 30.1219 17.0123 29.1517C15.7976 28.1889 14.6771 26.8533 13.8497 25.3896C13.0205 23.9226 12.5089 22.3683 12.4619 20.9729C12.4154 19.5908 12.8215 18.398 13.7935 17.5382L12.9101 16.5395ZM20.6073 32C22.1295 32 23.7137 31.2723 25.1166 30.1951C26.5301 29.1097 27.8245 27.6209 28.7733 25.9822C30.6377 22.7623 31.3183 18.6219 28.3045 15.9561L27.4211 16.9547C29.6943 18.9655 29.3855 22.2641 27.6195 25.3141C26.7531 26.8103 25.5722 28.1641 24.3045 29.1376C23.0262 30.1192 21.7235 30.6667 20.6073 30.6667V32ZM28.3045 15.9561C27.9218 15.6176 27.6236 15.4417 27.2978 15.277C26.9835 15.1181 26.6925 14.9913 26.2226 14.7143L25.5453 15.8627C26.0649 16.1691 26.4335 16.3341 26.6963 16.4669C26.9476 16.5939 27.1441 16.7097 27.4211 16.9547L28.3045 15.9561ZM19.8748 16.3663C18.8816 16.0412 17.5935 15.7237 16.3529 15.6526C15.1435 15.5833 13.8159 15.7383 12.9101 16.5395L13.7935 17.5382C14.2903 17.0988 15.1593 16.9197 16.2765 16.9837C17.3625 17.046 18.5309 17.3293 19.4599 17.6335L19.8748 16.3663ZM16.7945 12.5989L15.1886 10.5848L14.1461 11.4161L15.7521 13.4302L16.7945 12.5989ZM15.0267 11.562L17.275 10.1234L16.5564 9.0003L14.308 10.4389L15.0267 11.562ZM16.3945 9.97749L18.0005 11.9915L19.0429 11.1603L17.4369 9.14623L16.3945 9.97749ZM18.8046 12.1796L20.6463 11.3164L20.0804 10.1091L18.2387 10.9723L18.8046 12.1796ZM21.03 10.7127V8.66669H19.6967V10.7127H21.03ZM20.3633 9.33336L23.2327 9.33333V8L20.3633 8.00003L20.3633 9.33336ZM22.566 8.66667V10.7127H23.8993V8.66667H22.566ZM23.2327 10.7127C22.9127 11.2976 22.9128 11.2977 22.9127 11.2976C22.9126 11.2976 22.9127 11.2977 22.9127 11.2976C22.9125 11.2975 22.9118 11.2971 22.9117 11.2971C22.9114 11.2969 22.9111 11.2967 22.911 11.2967C22.9106 11.2964 22.9104 11.2963 22.9104 11.2963C22.9103 11.2963 22.9113 11.2968 22.9127 11.2976C22.9155 11.2992 22.9208 11.3023 22.9289 11.3071C22.9451 11.3167 22.9715 11.3326 23.0063 11.3549C23.0761 11.3997 23.1787 11.4695 23.3001 11.5638C23.5447 11.7539 23.8564 12.0363 24.1325 12.4074L25.2021 11.6113C24.8359 11.1192 24.4302 10.7533 24.1181 10.5109C23.9612 10.389 23.8255 10.2964 23.7266 10.2329C23.6771 10.2011 23.6366 10.1765 23.607 10.159C23.5922 10.1503 23.5801 10.1433 23.571 10.1381C23.5664 10.1355 23.5626 10.1334 23.5595 10.1317C23.558 10.1308 23.5567 10.1301 23.5555 10.1294C23.5549 10.1291 23.5544 10.1288 23.5539 10.1286C23.5537 10.1284 23.5535 10.1283 23.5533 10.1282C23.5531 10.1281 23.5533 10.1282 23.5533 10.1282C23.5531 10.1281 23.5526 10.1279 23.2327 10.7127ZM15.6425 15.1059C15.7909 14.5773 16.0525 14.184 16.2775 13.9228C16.3897 13.7925 16.4911 13.6972 16.5609 13.6369C16.5958 13.6067 16.6225 13.5857 16.6383 13.5735C16.6463 13.5675 16.6515 13.5637 16.6535 13.5621C16.6546 13.5614 16.6549 13.5612 16.6543 13.5616C16.6541 13.5618 16.6536 13.5621 16.6529 13.5626C16.6525 13.5628 16.6521 13.5631 16.6517 13.5634C16.6515 13.5635 16.6513 13.5637 16.651 13.5639C16.6509 13.564 16.6511 13.5639 16.651 13.5639C16.6508 13.5641 16.6502 13.5645 16.2733 13.0145C15.8964 12.4646 15.8962 12.4648 15.896 12.4649C15.8959 12.465 15.8962 12.4649 15.896 12.4649C15.8957 12.4652 15.8949 12.4657 15.8946 12.4659C15.8939 12.4663 15.8932 12.4669 15.8924 12.4674C15.8909 12.4685 15.8891 12.4697 15.8871 12.4711C15.8831 12.474 15.8781 12.4775 15.8724 12.4816C15.861 12.4899 15.8463 12.5007 15.8285 12.5143C15.7931 12.5413 15.7457 12.5791 15.6895 12.6277C15.5772 12.7247 15.4281 12.8659 15.2673 13.0527C14.9461 13.4255 14.5715 13.9879 14.3588 14.7457L15.6425 15.1059ZM12.6673 17.3529C13.2422 17.0154 13.2421 17.0152 13.2419 17.0149C13.2419 17.0149 13.242 17.0151 13.2419 17.0149C13.2417 17.0145 13.2412 17.0137 13.241 17.0133C13.2405 17.0125 13.24 17.0117 13.2394 17.0107C13.2383 17.0087 13.2369 17.0064 13.2353 17.0037C13.2321 16.9984 13.2279 16.9917 13.2229 16.9835C13.2128 16.9674 13.1991 16.9458 13.1817 16.9196C13.1469 16.8672 13.0973 16.7959 13.0326 16.7111C12.9037 16.5421 12.7127 16.3167 12.4578 16.0815C11.9496 15.6125 11.1675 15.0866 10.106 14.9168L9.89535 16.2334C10.6249 16.3501 11.1761 16.7131 11.5535 17.0614C11.7415 17.2348 11.8813 17.4002 11.9725 17.5198C12.0179 17.5793 12.0507 17.6267 12.0708 17.657C12.0808 17.6721 12.0877 17.6829 12.0913 17.6887C12.0931 17.6916 12.0941 17.6933 12.0943 17.6936C12.0944 17.6937 12.0946 17.6941 12.0943 17.6936C12.0941 17.6933 12.0936 17.6925 12.0933 17.6921C12.0932 17.6919 12.0931 17.6916 12.0929 17.6913C12.0929 17.6912 12.093 17.6914 12.0929 17.6913C12.0928 17.6911 12.0925 17.6905 12.6673 17.3529ZM10.6557 15.6991L11.2527 12.5475L9.94265 12.2993L9.34563 15.451L10.6557 15.6991ZM10.5977 12.4234C10.4095 13.0629 10.4093 13.0629 10.4092 13.0629C10.4094 13.0629 10.4097 13.063 10.4104 13.0633C10.4117 13.0637 10.4141 13.0643 10.4175 13.0654C10.4243 13.0675 10.4351 13.0707 10.4497 13.0753C10.4789 13.0843 10.5231 13.0983 10.5803 13.1172C10.6947 13.1549 10.8604 13.2118 11.0611 13.2873C11.464 13.4388 11.9995 13.6621 12.5396 13.9509C13.0837 14.2417 13.6072 14.5857 14.0036 14.9706C14.4029 15.3583 14.625 15.7399 14.6729 16.1076L15.9951 15.9354C15.8937 15.1571 15.4492 14.5158 14.9325 14.0141C14.4128 13.5094 13.7708 13.0971 13.1682 12.775C12.5615 12.4507 11.9689 12.2043 11.5305 12.0393C11.3104 11.9565 11.1271 11.8935 10.9977 11.8509C10.9329 11.8295 10.8814 11.8132 10.8455 11.802C10.8275 11.7964 10.8133 11.7921 10.8033 11.7891C10.7983 11.7876 10.7943 11.7864 10.7914 11.7855C10.7899 11.7851 10.7888 11.7847 10.7879 11.7845C10.7874 11.7843 10.787 11.7842 10.7867 11.7841C10.7865 11.7841 10.7868 11.7841 10.7867 11.7841C10.7865 11.784 10.7859 11.7839 10.5977 12.4234ZM15.0867 15.4024C14.2253 15.7465 13.5347 16.0911 13.0568 16.3514C12.8177 16.4817 12.6315 16.5909 12.5033 16.6689C12.4393 16.7078 12.3897 16.7389 12.3552 16.7609C12.338 16.7719 12.3245 16.7805 12.315 16.7868C12.3102 16.7899 12.3063 16.7924 12.3035 16.7943C12.3021 16.7953 12.3009 16.796 12.3 16.7967C12.2995 16.7969 12.2991 16.7972 12.2987 16.7975C12.2986 16.7975 12.2989 16.7974 12.2987 16.7975C12.2987 16.7975 12.2981 16.7979 12.2981 16.7979C12.298 16.7979 12.2979 16.798 12.6673 17.3529C13.0368 17.9079 13.0369 17.9078 13.0368 17.9079C13.0367 17.9079 13.0369 17.9079 13.0368 17.9079C13.0378 17.9072 13.04 17.9057 13.0429 17.9039C13.0489 17.9 13.0585 17.8937 13.0719 17.8852C13.0987 17.8682 13.1402 17.8421 13.1959 17.8082C13.3073 17.7405 13.4753 17.6417 13.6945 17.5223C14.1333 17.2833 14.7761 16.9623 15.5813 16.6406L15.0867 15.4024ZM23.3667 17.9109C23.976 16.9425 24.6206 16.4281 25.3369 16.0965L24.7769 14.8865C23.8163 15.3312 22.9784 16.0243 22.2381 17.2009L23.3667 17.9109ZM19.2506 17.5762C20.0777 17.8182 21.0423 18.2075 21.6481 18.4653L22.1702 17.2385C21.5543 16.9763 20.5305 16.5615 19.625 16.2965L19.2506 17.5762ZM23.2223 12.1849C21.2715 13.0879 19.9475 14.3991 18.8401 16.6411L20.0355 17.2316C21.0235 15.2316 22.1377 14.1561 23.7825 13.3949L23.2223 12.1849ZM29.8037 11.1975C27.3019 11.1112 25.1027 11.3145 23.2223 12.1849L23.7825 13.3949C25.3803 12.6553 27.3304 12.4463 29.7577 12.5301L29.8037 11.1975ZM30.3303 15.0561L30.4469 11.8883L29.1145 11.8393L28.9979 15.0071L30.3303 15.0561ZM25.3369 16.0965C26.2019 15.6962 27.346 15.6187 29.6411 15.6979L29.6871 14.3653C27.434 14.2876 25.9728 14.333 24.7769 14.8865L25.3369 16.0965ZM22.2381 17.2009C22.2268 17.219 22.2099 17.2313 22.1935 17.2369C22.1785 17.2419 22.1719 17.2392 22.1702 17.2385L21.6481 18.4653C22.2979 18.7419 23.0172 18.4664 23.3667 17.9109L22.2381 17.2009ZM20.5441 24.4586L20.8191 25.0942L22.0429 24.5647L21.7678 23.9291L20.5441 24.4586ZM20.7659 24.8749L20.9525 27.6103L22.2827 27.5196L22.0961 24.7841L20.7659 24.8749ZM21.5079 25.4917L24.3452 25.1623L24.1915 23.8379L21.3541 24.1673L21.5079 25.4917ZM22.0622 17.3869L20.5099 20.7454L21.7201 21.3048L23.2725 17.9464L22.0622 17.3869ZM20.4728 20.8462L20.3316 21.3531L21.616 21.7109L21.7572 21.204L20.4728 20.8462ZM20.8403 20.4177L17.9387 21.7299L18.4881 22.9447L21.3897 21.6325L20.8403 20.4177ZM18.3663 21.6884L15.4751 21.0073L15.1694 22.3051L18.0605 22.9862L18.3663 21.6884ZM17.5935 22.0921L16.6075 24.5843L17.8474 25.0747L18.8333 22.5825L17.5935 22.0921ZM21.7678 23.9291C21.4649 23.2289 21.4113 22.4459 21.616 21.7109L20.3316 21.3531C20.0449 22.3821 20.1199 23.4783 20.5441 24.4586L21.7678 23.9291Z" fill="white"/>
</svg>
