<svg width="40" height="40" viewBox="0 0 40 40" fill="none" xmlns="http://www.w3.org/2000/svg">
<path fill-rule="evenodd" clip-rule="evenodd" d="M20.0007 15.9993C22.578 15.9993 24.6673 13.91 24.6673 11.3327C24.6673 8.75536 22.578 6.66602 20.0007 6.66602C17.4233 6.66602 15.334 8.75536 15.334 11.3327C15.334 13.91 17.4233 15.9993 20.0007 15.9993ZM20.0007 14.666C21.8416 14.666 23.334 13.1736 23.334 11.3327C23.334 9.49174 21.8416 7.99935 20.0007 7.99935C18.1597 7.99935 16.6673 9.49174 16.6673 11.3327C16.6673 13.1736 18.1597 14.666 20.0007 14.666Z" fill="white"/>
<path fill-rule="evenodd" clip-rule="evenodd" d="M21.8275 26.8875L18.3679 25.8385V23.6668C18.3679 23.2986 18.0695 23.0001 17.7013 23.0001C17.3331 23.0001 17.0346 23.2986 17.0346 23.6668V26.3331C17.0346 26.6113 17.2073 26.8587 17.4643 26.9562L18.6333 27.3997L17.6137 28.1232C17.5337 28.18 17.4677 28.2537 17.4199 28.3379L18.3657 29.5989C19.1389 30.6298 18.9301 32.0924 17.8991 32.8656C16.8683 33.6389 15.4057 33.43 14.6325 32.3991L11.1327 27.7331C10.5924 27.0127 10.5148 26.0457 10.9335 25.2484L13.5778 20.2119C14.018 19.3735 14.8283 18.7921 15.7637 18.6436L23.8327 17.3629C24.821 17.2061 25.7993 17.6968 26.2644 18.5827L29.0642 23.9153C29.4829 24.7125 29.4053 25.6796 28.8649 26.4L25.3652 31.0659C24.5919 32.0969 23.1294 32.3057 22.0985 31.5325C21.0676 30.7593 20.8587 29.2967 21.6319 28.2658L22.4497 27.1756C22.3879 27.1192 22.3157 27.0746 22.2369 27.0444L21.8275 26.8875ZM24.8187 26.4571L24.0023 27.3266L24.0025 27.3274L22.6986 29.0659C22.3672 29.5077 22.4567 30.1345 22.8985 30.4659C23.3403 30.7973 23.9671 30.7077 24.2985 30.2659L27.7983 25.5999C28.0299 25.2912 28.0631 24.8768 27.8837 24.5351L25.0839 19.2025C24.8845 18.8229 24.4653 18.6125 24.0418 18.6798L15.9727 19.9605C15.4531 20.0429 15.0029 20.3659 14.7583 20.8318L12.1139 25.8682C11.9345 26.2099 11.9678 26.6243 12.1994 26.9331L15.6991 31.599C16.0305 32.0409 16.6573 32.1303 17.0991 31.799C17.5409 31.4676 17.6305 30.8408 17.2991 30.399L15.9795 28.6397L15.9804 28.6341L14.8003 27.0687L15.7021 26.3889C15.7015 26.3703 15.7013 26.3517 15.7013 26.3331V23.6668C15.7013 22.5623 16.5967 21.6668 17.7013 21.6668C18.8059 21.6668 19.7013 22.5623 19.7013 23.6668V24.8495L21.1395 25.2856C20.8398 24.8187 20.666 24.2633 20.666 23.6673C20.666 22.0105 22.0091 20.6673 23.666 20.6673C25.3229 20.6673 26.666 22.0105 26.666 23.6673C26.666 24.9212 25.8968 25.9954 24.8045 26.4437L24.8187 26.4571ZM21.9993 23.6673C21.9993 22.7469 22.7455 22.0007 23.666 22.0007C24.5865 22.0007 25.3327 22.7469 25.3327 23.6673C25.3327 24.5878 24.5865 25.334 23.666 25.334C22.7455 25.334 21.9993 24.5878 21.9993 23.6673Z" fill="white"/>
</svg>
