<svg width="40" height="40" viewBox="0 0 40 40" fill="none" xmlns="http://www.w3.org/2000/svg">
<path fill-rule="evenodd" clip-rule="evenodd" d="M20.0009 8C20.3691 8 20.6675 8.29848 20.6675 8.66667V13.0431C21.1544 13.4117 21.5777 14.1737 21.8842 15.1897L23.6667 13.4921V11.5555C23.6667 11.3731 23.7415 11.1986 23.8735 11.0728L26.2069 8.85057C26.4735 8.59665 26.8955 8.60694 27.1494 8.87356C27.4033 9.14019 27.3931 9.56217 27.1265 9.81609L25 11.8413V13.7778C25 13.9602 24.9252 14.1347 24.7931 14.2605L22.4598 16.4827C22.3864 16.5527 22.3012 16.6025 22.211 16.6325C22.25 16.8728 22.2835 17.1207 22.3109 17.3751L31.9278 18.6667C32.2286 19.7778 31.7473 22 27.4151 22C24.4665 22 23.0231 20.5586 22.4019 19.1475C22.4001 19.7945 22.3611 20.4182 22.2903 21.0048L25.9582 24.4567C26.1267 24.6153 26.2009 24.8499 26.1543 25.0765L25.6747 27.4093L27.6173 28.3236C27.9504 28.4804 28.0933 28.8775 27.9365 29.2107C27.7797 29.5438 27.3825 29.6868 27.0494 29.53L24.6321 28.3922C24.3536 28.2611 24.201 27.9563 24.263 27.6547L24.7733 25.1726L22.006 22.5681C21.9004 22.9879 21.7762 23.3725 21.6365 23.7139L22.9175 25.1682C23.076 25.3481 23.1257 25.5991 23.0477 25.8257L22.2096 28.2621L23.9942 30.9661C24.197 31.2734 24.1123 31.6869 23.805 31.8897C23.4977 32.0925 23.0842 32.0079 22.8814 31.7005L20.916 28.7228C20.8021 28.5501 20.7747 28.3343 20.842 28.1387L21.6608 25.7587L20.9229 24.921C20.639 25.2311 20.3276 25.4023 20.0009 25.4023C19.6739 25.4023 19.3621 25.2307 19.0781 24.9199L18.3392 25.7587L19.158 28.1387C19.2253 28.3343 19.1979 28.5501 19.084 28.7228L17.1186 31.7005C16.9158 32.0079 16.5023 32.0925 16.195 31.8897C15.8877 31.6869 15.803 31.2734 16.0058 30.9661L17.7904 28.2621L16.9523 25.8257C16.8743 25.5991 16.924 25.3481 17.0825 25.1682L18.3648 23.7125C18.2251 23.3711 18.101 22.9865 17.9955 22.5667L15.2267 25.1726L15.737 27.6547C15.799 27.9563 15.6464 28.2611 15.3679 28.3922L12.9506 29.53C12.6175 29.6868 12.2203 29.5438 12.0635 29.2107C11.9067 28.8775 12.0496 28.4804 12.3827 28.3236L14.3253 27.4093L13.8457 25.0765C13.7991 24.8499 13.8733 24.6153 14.0418 24.4567L17.7113 21.0032C17.6405 20.4158 17.6016 19.7912 17.5999 19.1433C16.9798 20.5558 15.5365 22 12.5849 22C8.25274 22 7.77139 19.7778 8.07223 18.6667L17.6909 17.3749C17.7184 17.1207 17.7518 16.8731 17.7907 16.6331C17.6999 16.6032 17.6141 16.5531 17.5402 16.4827L15.2069 14.2605C15.0748 14.1347 15 13.9602 15 13.7778V11.8413L12.8735 9.81609C12.6069 9.56217 12.5967 9.14019 12.8506 8.87357C13.1045 8.60695 13.5265 8.59665 13.7931 8.85057L16.1265 11.0728C16.2585 11.1986 16.3333 11.3731 16.3333 11.5555V13.4921L18.1173 15.191C18.4238 14.1745 18.8472 13.4119 19.3342 13.0431V8.66667C19.3342 8.29848 19.6327 8 20.0009 8ZM9.58278 19.8587C9.85431 20.1607 10.6162 20.6667 12.5849 20.6667C14.394 20.6667 15.3583 20.036 15.8937 19.3951C16.022 19.2417 16.1313 19.0806 16.2238 18.9172L9.54494 19.8142C9.55695 19.8291 9.56955 19.8439 9.58278 19.8587ZM30.4172 19.8587C30.1457 20.1607 29.3837 20.6667 27.4151 20.6667C25.606 20.6667 24.6417 20.036 24.1063 19.3951C23.978 19.2417 23.8687 19.0806 23.7762 18.9172L30.4551 19.8142C30.4431 19.8291 30.4305 19.8439 30.4172 19.8587ZM21.0686 19.0997C21.0686 20.7205 20.816 22.128 20.4527 23.0817C20.2931 23.5007 20.1315 23.7806 20.0009 23.9476C19.8703 23.7806 19.7088 23.5007 19.5491 23.0817C19.1858 22.128 18.9332 20.7205 18.9332 19.0997C18.9332 17.4788 19.1858 16.0713 19.5491 15.1176C19.7088 14.6985 19.8703 14.4187 20.0009 14.2517C20.1315 14.4187 20.2931 14.6985 20.4527 15.1176C20.816 16.0713 21.0686 17.4788 21.0686 19.0997Z" fill="white"/>
</svg>
