<svg width="40" height="40" viewBox="0 0 40 40" fill="none" xmlns="http://www.w3.org/2000/svg">
<path fill-rule="evenodd" clip-rule="evenodd" d="M20.9672 9.41452C21.1184 9.75023 20.9689 10.145 20.6331 10.2962C19.476 10.8174 18.6716 11.9781 18.6671 13.3258L18.6671 13.3372L18.6671 13.3487C18.6733 15.1844 20.1633 16.6706 22.0004 16.6706C23.7198 16.6706 25.1359 15.3683 25.3147 13.6967C25.3538 13.3306 25.6823 13.0656 26.0484 13.1047C26.4145 13.1439 26.6796 13.4724 26.6404 13.8385C26.5349 14.8248 26.1225 15.7191 25.5004 16.424C26.5012 16.649 27.3805 17.1954 28.0231 17.948C28.2622 18.228 28.2291 18.6488 27.9491 18.8879C27.6691 19.127 27.2483 19.0938 27.0091 18.8138C26.3967 18.0967 25.4881 17.6438 24.4731 17.6438C22.6321 17.6438 21.1397 19.1362 21.1397 20.9772C21.1397 21.5301 21.2739 22.0504 21.5115 22.5087C22.0301 22.4398 22.5722 22.625 22.9403 23.05C23.1095 23.2455 23.2624 23.4452 23.4009 23.6475C23.6265 23.977 23.7127 24.3602 23.6729 24.7279C23.9763 24.9164 24.2191 25.2067 24.3443 25.5714C24.4933 26.0059 24.6059 26.4262 24.6997 26.793C24.7725 27.0778 24.7643 27.364 24.6898 27.6274C24.8643 27.7808 25.0083 27.9746 25.1058 28.2028C25.1735 28.3612 25.2203 28.4174 25.2323 28.43C25.2773 28.462 25.3203 28.496 25.361 28.5317C25.4856 28.4828 25.6183 28.4488 25.7572 28.4322C25.8763 28.4179 26.0145 28.3948 26.1743 28.36C26.7289 28.2393 27.2788 28.4204 27.6529 28.7934C27.9389 28.6212 28.1489 28.3654 28.2534 28.0494C28.3861 27.6485 28.3745 27.0688 27.9919 26.327C27.8232 25.9997 27.9517 25.5976 28.2789 25.4289C28.6062 25.2602 29.0083 25.3886 29.177 25.7159C29.4486 26.2426 29.6043 26.7594 29.6496 27.2503C30.0558 26.7678 30.4846 26.1155 30.8351 25.2556C30.974 24.9146 31.3631 24.7509 31.704 24.8898C32.045 25.0288 32.2087 25.4179 32.0698 25.7588C31.6525 26.7826 31.1344 27.5652 30.6349 28.15C30.9597 28.1886 31.3012 28.2686 31.6709 28.3969C32.0188 28.5176 32.2029 28.8974 32.0823 29.2453C31.9615 29.5932 31.5817 29.7773 31.2339 29.6566C30.571 29.4266 30.0993 29.4176 29.64 29.5128C29.2121 29.6014 28.7913 29.7774 28.2039 30.023L28.1199 30.0581C28.0657 30.7468 27.5683 31.348 26.8584 31.5026C26.6125 31.5561 26.3732 31.5975 26.1405 31.6254C25.668 31.6822 25.2193 31.5281 24.8881 31.2374C24.4013 31.428 23.8313 31.378 23.3724 31.0538C22.7366 30.6048 22.3755 29.998 22.1485 29.4668C21.9981 29.115 21.9829 28.7398 22.0793 28.3987C21.8445 28.1926 21.6671 27.9159 21.5838 27.5899C21.4954 27.2443 21.4083 26.9245 21.3021 26.615C21.2231 26.3845 21.1995 26.1485 21.224 25.9214C21.0406 25.8074 20.8771 25.6544 20.7472 25.4646C20.6744 25.3583 20.5954 25.2552 20.509 25.1554C20.0471 24.622 19.9982 23.8712 20.3345 23.2936C19.7325 22.7031 18.9089 22.3401 18.0004 22.3401C16.9341 22.3401 15.9846 22.8408 15.3745 23.62C15.3291 23.6859 15.2821 23.7506 15.2334 23.814C14.8758 24.3452 14.6671 24.985 14.6671 25.6734C14.6671 26.3088 14.8442 26.9008 15.1515 27.405C15.3431 27.7194 15.2435 28.1296 14.9291 28.3212C14.6147 28.5128 14.2045 28.4132 14.0129 28.0988C13.5819 27.3916 13.3337 26.5604 13.3337 25.6734C13.3337 25.539 13.3394 25.406 13.3505 25.2744C12.7905 25.5122 12.1745 25.6438 11.5278 25.6438C11.2041 25.6438 10.8874 25.6108 10.5812 25.5476C10.2206 25.4733 9.98855 25.1206 10.0629 24.76C10.1372 24.3994 10.4898 24.1674 10.8505 24.2418C11.0686 24.2867 11.2951 24.3105 11.5278 24.3105C12.5941 24.3105 13.5435 23.8098 14.1537 23.0306C14.1991 22.9646 14.2461 22.8999 14.2948 22.8364C14.6524 22.3053 14.8611 21.6656 14.8611 20.9772C14.8611 19.1362 13.3687 17.6438 11.5278 17.6438C10.549 17.6438 9.66949 18.0648 9.05875 18.7377C8.81129 19.0103 8.38967 19.0307 8.11704 18.7832C7.84441 18.5358 7.82401 18.1142 8.07147 17.8416C8.70465 17.144 9.54749 16.6382 10.5005 16.424C9.89737 15.7406 9.49126 14.879 9.37092 13.9283C9.32469 13.563 9.58333 13.2294 9.9486 13.1832C10.3139 13.137 10.6475 13.3956 10.6937 13.7609C10.9013 15.4015 12.3032 16.6706 14.0005 16.6706C15.8375 16.6706 17.3275 15.1844 17.3337 13.3488V13.3373V13.3257C17.3293 12.0002 16.5511 10.8555 15.4242 10.3222C15.0914 10.1648 14.9493 9.76729 15.1068 9.43448C15.2643 9.10168 15.6617 8.95956 15.9945 9.11705C16.8283 9.51157 17.5268 10.1463 18.0004 10.9323C18.4889 10.1216 19.2169 9.47177 20.0855 9.08047C20.4213 8.92925 20.816 9.07882 20.9672 9.41452ZM16.1776 21.3762C16.7376 21.1384 17.3537 21.0068 18.0004 21.0068C18.6472 21.0068 19.2633 21.1385 19.8233 21.3764C19.8121 21.2447 19.8064 21.1116 19.8064 20.9772C19.8064 19.7937 20.2469 18.7131 20.9729 17.8905C19.7138 17.6076 18.6472 16.8158 18.0004 15.7424C17.3536 16.8158 16.287 17.6076 15.0279 17.8904C15.7539 18.7131 16.1945 19.7937 16.1945 20.9772C16.1945 21.1116 16.1887 21.2446 16.1776 21.3762ZM18.0004 18.6734C17.8166 18.6734 17.6675 18.8224 17.6675 19.0063C17.6675 19.1901 17.8166 19.3392 18.0004 19.3392C18.1843 19.3392 18.3333 19.1901 18.3333 19.0063C18.3333 18.8224 18.1843 18.6734 18.0004 18.6734ZM16.3342 19.0063C16.3342 18.0861 17.0802 17.3401 18.0004 17.3401C18.9206 17.3401 19.6666 18.0861 19.6666 19.0063C19.6666 19.9265 18.9206 20.6725 18.0004 20.6725C17.0802 20.6725 16.3342 19.9265 16.3342 19.0063ZM22.6107 25.9188L22.6905 25.821L22.8175 25.8182C22.9345 25.8158 23.0437 25.8891 23.0831 26.004C23.2144 26.3868 23.3164 26.7655 23.4079 27.1234C23.4343 27.2266 23.3989 27.3322 23.3216 27.3994L23.2273 27.4814L23.1034 27.4638C22.9952 27.4484 22.9037 27.3696 22.8755 27.2595C22.7849 26.9052 22.6873 26.5438 22.5633 26.1824C22.5315 26.0898 22.5514 25.9915 22.6107 25.9188ZM23.665 28.5625L23.5415 28.5449L23.4467 28.6272C23.3585 28.7038 23.3267 28.8312 23.3745 28.9428C23.5475 29.3476 23.7813 29.7102 24.1417 29.9648C24.2629 30.0504 24.4299 30.024 24.5188 29.9068L24.6046 29.7936L24.5623 29.658C24.545 29.6024 24.5106 29.5526 24.4587 29.516C24.2119 29.3416 24.0306 29.0797 23.8798 28.7268C23.8409 28.6359 23.7589 28.5759 23.665 28.5625ZM25.7299 29.8628L25.6443 29.9756L25.6866 30.1115C25.7251 30.2352 25.8486 30.3176 25.9815 30.3016C26.1672 30.2794 26.3646 30.2455 26.5748 30.1998C26.7231 30.1675 26.8171 30.0211 26.7849 29.8728C26.7525 29.7246 26.6062 29.6306 26.4579 29.6628C26.2624 29.7054 26.0823 29.7361 25.9161 29.756C25.839 29.7653 25.7741 29.8046 25.7299 29.8628ZM22.0805 24.8308L22.2067 24.8282L22.2872 24.7298C22.3627 24.6374 22.3707 24.503 22.3007 24.4008C22.1895 24.2384 22.0673 24.0787 21.9323 23.9229C21.833 23.8082 21.6595 23.7957 21.5448 23.895C21.4301 23.9944 21.4176 24.1679 21.5169 24.2826C21.6377 24.4221 21.7473 24.5652 21.8473 24.7112C21.9013 24.7901 21.9889 24.8327 22.0805 24.8308ZM25.2349 28.4325C25.2349 28.4324 25.2346 28.432 25.2331 28.4308C25.2339 28.4316 25.2345 28.4322 25.2349 28.4325Z" fill="white"/>
</svg>
