<svg width="40" height="40" viewBox="0 0 40 40" fill="none" xmlns="http://www.w3.org/2000/svg">
<path fill-rule="evenodd" clip-rule="evenodd" d="M23.7229 19.2487C24.4959 19.2487 25.2509 19.0386 25.8892 18.6458C26.5373 19.0379 27.3023 19.2434 28.0828 19.2353L30.5622 18.4221C31.2609 17.9029 31.7405 17.1833 31.9209 16.3836C32.1012 15.5839 31.9713 14.7526 31.5529 14.0289C31.1345 13.3051 30.4529 12.7329 29.6224 12.4079C29.4327 11.6337 28.9551 10.9411 28.2686 10.4453L25.8483 9.68187H25.5759C25.0375 8.97392 24.2293 8.46894 23.3049 8.26292L18.1161 8C17.2535 8.06459 16.4402 8.38883 15.807 8.92054C15.5078 8.85696 15.2015 8.82401 14.8941 8.82231C14.1498 8.82369 13.4218 9.01921 12.7981 9.38527C12.1743 9.75133 11.6815 10.2723 11.379 10.8853L9.40743 12.144C8.91685 12.7431 8.65275 13.4684 8.65405 14.2129C8.6492 14.5243 8.6951 14.8346 8.7903 15.1339C8.27304 15.7389 7.9949 16.4823 8.00007 17.246C7.99884 18.1317 8.37428 18.9843 9.04916 19.6282C9.10363 20.2623 9.34949 20.871 9.76014 21.3883C10.1708 21.9055 10.7306 22.3118 11.379 22.5629C12.1261 22.9851 12.7587 23.5528 13.2302 24.2243C13.7018 24.8958 14.0003 25.6541 14.1039 26.4433H19.1943V22.7594C19.1934 22.1053 19.3959 21.4641 19.7788 20.9085C20.1617 20.3529 20.7097 19.9051 21.3607 19.6159C21.7267 19.4897 21.8168 19.3197 21.9271 19.1115C22.0007 18.9728 22.0833 18.817 22.2625 18.6458C22.4182 18.7416 22.5389 18.8266 22.6435 18.9003C22.9679 19.1286 23.1385 19.2487 23.7229 19.2487ZM26.688 17.5633C27.0435 17.7555 27.4533 17.8713 27.8817 17.8941L29.9185 17.226C30.2905 16.9023 30.5267 16.501 30.6201 16.0864C30.7251 15.6209 30.6527 15.1319 30.3985 14.6923C30.1419 14.2484 29.7058 13.8684 29.1365 13.6457L28.492 13.3935L28.3273 12.7212C28.2309 12.3274 27.9994 11.9469 27.6395 11.641L25.6431 11.0113H24.9147L24.5145 10.485C24.1973 10.0679 23.7081 9.73883 23.1143 9.5844L18.14 9.33236C17.5722 9.38964 17.056 9.60891 16.6644 9.93775L16.1662 10.3561L15.5299 10.2209C15.3214 10.1766 15.1073 10.1533 14.8917 10.1518C14.3783 10.1536 13.8853 10.2893 13.4729 10.5313C13.06 10.7736 12.7551 11.1057 12.5747 11.4713L12.4101 11.805L10.3264 13.1353C10.0987 13.4691 9.98674 13.8401 9.98738 14.2067L9.9874 14.2183L9.98722 14.2299C9.98464 14.3958 10.009 14.5627 10.0609 14.7259L10.2857 15.4327L9.8037 15.9965C9.48534 16.3689 9.33048 16.8046 9.33337 17.2331L9.3334 17.2385L9.3334 17.2439C9.3327 17.7434 9.54314 18.2527 9.96958 18.6596L10.3345 19.0077L10.3776 19.5102C10.4088 19.8731 10.5502 20.2351 10.8044 20.5553C11.0598 20.8771 11.4211 21.1455 11.8607 21.3157L11.9507 21.3507L12.0349 21.3982C12.1324 21.4533 12.2284 21.5105 12.3229 21.5697L12.3187 21.5728C14.1312 22.6786 14.9003 24.2879 15.1613 25.1109H15.5693V20.2485L14.1005 18.9428L13.1035 19.9399C12.8431 20.2002 12.421 20.2002 12.1607 19.9399C11.9003 19.6795 11.9003 19.2574 12.1607 18.9971L13.3552 17.8025L12.9968 15.8312L11.3729 15.0193C11.0435 14.8546 10.9101 14.4541 11.0747 14.1248C11.2394 13.7955 11.6399 13.662 11.9692 13.8267L13.5537 14.619L15.4947 13.3839L14.891 11.7739C14.7617 11.4292 14.9364 11.0449 15.2811 10.9156C15.6259 10.7863 16.0101 10.961 16.1394 11.3057L16.7881 13.0357H17.5058L17.8486 12.35L17.3051 11.0817C17.16 10.7433 17.3168 10.3513 17.6552 10.2063C17.9936 10.0613 18.3855 10.218 18.5306 10.5564L18.9987 11.6486L20.8573 11.9865L20.865 11.9803L22.0663 11.0193C22.3538 10.7893 22.7733 10.8359 23.0033 11.1234C23.2333 11.4109 23.1867 11.8304 22.8992 12.0604L22.0962 12.7029L22.9863 13.8473L23.3281 13.1638C23.4409 12.9379 23.6718 12.7953 23.9243 12.7953H25.3659C25.7341 12.7953 26.0325 13.0937 26.0325 13.4619C26.0325 13.8301 25.7341 14.1286 25.3659 14.1286H24.3363L24.1576 14.4861L25.2703 14.7333C25.3235 14.7452 25.375 14.7635 25.4238 14.7879L26.3848 15.2684C26.7141 15.433 26.8476 15.8335 26.683 16.1628C26.5183 16.4921 26.1179 16.6256 25.7885 16.4609L24.9009 16.0171L22.8187 15.5544C22.6673 15.5207 22.5323 15.4353 22.4371 15.3129L20.9116 13.3516L19.0627 13.0155C19.0359 13.0375 19.0071 13.0577 18.9765 13.0757L18.5845 13.8597V14.2368H19.3594C19.4629 14.2368 19.5649 14.2609 19.6575 14.3072L21.5796 15.2683C21.9089 15.4329 22.0424 15.8333 21.8777 16.1627C21.7131 16.492 21.3126 16.6255 20.9833 16.4608L19.202 15.5701H18.5845V16.5855C18.5845 16.9536 18.286 17.2521 17.9178 17.2521C17.5496 17.2521 17.2511 16.9536 17.2511 16.5855V14.9086V14.9035V14.8984V14.369H16.4301L14.3292 15.7059L14.6884 17.6815L16.6789 19.4508C16.8212 19.5773 16.9027 19.7587 16.9027 19.9491V25.1109H17.8611V22.7335C17.8611 20.9323 18.8672 19.8268 19.4167 19.3034C19.8563 18.8847 20.5165 18.5317 20.7917 18.4075C20.8464 18.2851 21.0329 17.9675 21.3412 17.6758C21.6495 17.3841 21.9697 17.0803 22.0912 16.9649C22.9165 17.4365 23.5573 17.9101 23.5573 17.9101C23.5573 17.9101 24.4115 17.8633 24.7995 17.7071C25.1099 17.5821 25.6511 17.2348 25.8829 17.0768L26.688 17.5633Z" fill="white"/>
<path d="M14 29.3333H19.3333V28H14V29.3333Z" fill="white"/>
<path d="M19.3333 31.9993H14V30.666H19.3333V31.9993Z" fill="white"/>
</svg>
