<svg width="40" height="40" viewBox="0 0 40 40" fill="none" xmlns="http://www.w3.org/2000/svg">
<path fill-rule="evenodd" clip-rule="evenodd" d="M18.4907 10.7447C18.3433 10.6625 18.2172 10.6448 18.0643 10.6974C18.0344 10.7077 18.0069 10.7189 17.9817 10.7313L17.9816 10.7321L17.9795 10.7333L17.9699 10.7386L17.9304 10.761C17.9273 10.7628 17.924 10.7646 17.9206 10.7665C17.8107 10.8406 17.7529 10.948 17.7171 11.1092C17.6579 11.3759 17.683 11.7273 17.7453 12.1225C17.8164 12.5732 18.054 13.2092 18.3946 13.6364C18.5619 13.8463 18.7206 13.9639 18.8527 14.0134C18.9626 14.0546 19.0911 14.0649 19.2753 13.9785C19.5536 13.8479 19.7259 13.5282 19.6544 12.8857C19.5849 12.2607 19.2945 11.6017 19.0305 11.2592C18.8435 11.0166 18.6613 10.8399 18.4907 10.7447ZM17.2214 9.63042C17.3423 9.55445 17.4782 9.48901 17.6304 9.43663C18.1973 9.24153 18.7169 9.34409 19.1403 9.58029C19.5403 9.8035 19.8538 10.1432 20.0865 10.4452C20.5031 10.9857 20.8837 11.8766 20.9796 12.7383C21.0493 13.3646 20.9748 14.1337 20.4975 14.6928C21.7238 14.6519 22.7006 14.7738 23.6351 14.8925L23.6677 14.8966C24.6412 15.0203 25.5693 15.1381 26.7589 15.0936C27.3121 15.0729 27.7843 14.962 28.2955 14.8419C28.4349 14.8091 28.5772 14.7757 28.7249 14.7433C29.3891 14.5971 30.1331 14.4823 30.9653 14.7278C31.2435 14.8099 31.4903 14.9567 31.6759 15.1793C31.8598 15.4 31.9491 15.6539 31.9825 15.8958C32.0457 16.3537 31.9185 16.8361 31.7723 17.2263C31.4722 18.0275 30.9433 18.817 30.7504 19.0895C30.0907 20.0216 29.3162 20.5503 28.4778 20.8247C27.6616 21.0919 26.8223 21.1048 26.0602 21.078C25.8366 21.0701 25.6229 21.0593 25.4165 21.0489C24.8839 21.0218 24.399 20.9973 23.915 21.0325C23.5914 21.0561 23.291 21.1062 23.0107 21.1968C23.1667 21.2264 23.3221 21.2652 23.4769 21.3132C24.7397 21.7042 25.8525 22.6721 26.8993 23.9503C27.0547 24.1089 27.1756 24.2775 27.2659 24.4737C27.3575 24.6725 27.4047 24.8727 27.4395 25.0616C27.5347 25.5787 27.3884 26.1014 27.1706 26.5351C26.9478 26.9785 26.6173 27.3971 26.2405 27.7355C25.8664 28.0714 25.4135 28.3577 24.9305 28.4941C24.44 28.6326 23.8711 28.6253 23.3693 28.2874C23.1079 28.1114 22.9489 27.8305 22.8765 27.6919C22.8431 27.6279 22.8153 27.5681 22.7935 27.5186C22.4118 27.1335 22.165 26.9401 21.9563 26.8447C21.8069 26.7763 21.6489 26.7453 21.4051 26.7803C21.3628 26.8215 21.3124 26.8703 21.2548 26.9252C21.0692 27.1023 20.8072 27.3452 20.501 27.6091C19.9022 28.125 19.0842 28.7652 18.3209 29.1232C16.7719 29.8497 15.2056 30.1713 13.7121 29.912C12.2056 29.6504 10.8504 28.8109 9.71685 27.3595C6.8789 23.7259 7.90397 18.5044 10.2693 15.1773C11.2823 13.7523 13.0791 12.3432 14.5604 11.3167C15.3119 10.7959 16.0027 10.3599 16.5058 10.054C16.7575 9.90091 16.9627 9.78007 17.1057 9.69715C17.1505 9.67112 17.1893 9.64882 17.2214 9.63042ZM20.6041 25.6969L20.7405 25.5579L20.9303 25.5143C21.491 25.3853 21.9991 25.3979 22.5112 25.6323C22.6055 25.6755 22.6977 25.7253 22.7885 25.7809C22.9078 25.4863 23.104 25.2 23.3122 24.9533C23.5805 24.6354 23.9181 24.325 24.2806 24.0751C24.467 23.9467 24.6711 23.8265 24.8855 23.7299C24.2656 23.1477 23.6705 22.7689 23.0825 22.5869C22.2285 22.3224 21.2793 22.4405 20.1089 23.1915L20.102 23.196L16.7909 25.207L16.7105 25.2314L16.5167 24.5935C16.7105 25.2314 16.7105 25.2314 16.7105 25.2314L16.7097 25.2317L16.7057 25.2329L16.6963 25.2357L16.6644 25.2449C16.6375 25.2526 16.5997 25.2632 16.5531 25.2755C16.4603 25.3001 16.3306 25.3323 16.1821 25.363C15.9042 25.4204 15.4895 25.4879 15.1235 25.4536C14.6619 25.4103 14.2296 25.3175 13.8246 25.1157C13.4145 24.9113 13.0726 24.6153 12.7615 24.2217C12.1336 23.4275 12.0621 22.7025 12.0475 21.8567C12.0337 21.0597 12.2025 20.4159 12.5236 19.8257C12.8326 19.2577 13.2728 18.7605 13.7468 18.2505C14.6855 17.2405 16.1623 16.1155 17.3179 15.2942C17.3576 15.2631 17.3987 15.2341 17.441 15.207C17.5725 15.1142 17.6999 15.0252 17.8221 14.9406C17.6421 14.7992 17.4858 14.6355 17.3519 14.4675C16.8417 13.8275 16.5283 12.9643 16.4283 12.3302C16.3999 12.1501 16.3715 11.9413 16.3582 11.7193C16.0373 11.926 15.6858 12.159 15.3198 12.4126C13.8491 13.4317 12.2235 14.7295 11.356 15.9498C9.17829 19.013 8.43347 23.5502 10.7677 26.5388C11.7279 27.7683 12.8051 28.4012 13.9402 28.5983C15.0883 28.7977 16.3729 28.5641 17.7547 27.9161C18.3435 27.6399 19.0465 27.1023 19.6307 26.5989C19.9159 26.3531 20.1609 26.126 20.3345 25.9605C20.4211 25.8779 20.4895 25.811 20.5357 25.7652C20.5589 25.7423 20.5765 25.7247 20.5881 25.7131L20.6008 25.7003L20.6041 25.6969ZM18.1789 16.3182C18.1543 16.3357 18.1295 16.3532 18.1046 16.3709C16.9508 17.1903 15.5648 18.2529 14.7235 19.1583C14.2467 19.6711 13.9146 20.0589 13.6948 20.4629C13.4872 20.8445 13.3707 21.2597 13.3806 21.8338C13.3936 22.5885 13.455 22.949 13.8075 23.3949C14.0212 23.6653 14.2167 23.8213 14.4193 23.9223C14.627 24.0258 14.883 24.0918 15.2481 24.1261C15.405 24.1408 15.6557 24.1102 15.9125 24.0572C16.0315 24.0327 16.1365 24.0065 16.2115 23.9867C16.2246 23.9832 16.2366 23.98 16.2477 23.977L19.3748 22.0777L21.4401 20.5269C22.1946 19.9604 23.0201 19.7609 23.8181 19.7027C24.3912 19.6609 24.999 19.6919 25.5583 19.7203C25.7479 19.73 25.9318 19.7393 26.107 19.7455C26.8374 19.7711 27.4804 19.7483 28.063 19.5575C28.6234 19.3741 29.1641 19.0229 29.6621 18.3193C29.8393 18.0689 30.2859 17.3934 30.5237 16.7586C30.6465 16.4307 30.6788 16.2023 30.6616 16.0781C30.6581 16.0527 30.6536 16.0391 30.651 16.0331C30.6437 16.028 30.6254 16.0177 30.5881 16.0067C30.0893 15.8595 29.6194 15.9117 29.0113 16.0455C28.8993 16.0701 28.7809 16.0981 28.6565 16.1275C28.1332 16.2513 27.5046 16.4 26.8087 16.426C25.509 16.4746 24.4893 16.3451 23.5222 16.2221L23.4672 16.2152C22.4855 16.0905 21.5513 15.9759 20.351 16.0331L20.3226 16.0345L20.2942 16.0334C19.9999 16.0223 19.519 16.0302 19.0588 16.0894C18.8291 16.1189 18.6191 16.1595 18.4469 16.2109C18.314 16.2505 18.2286 16.2894 18.1789 16.3182ZM24.0107 26.9739C24.023 27.0026 24.0392 27.038 24.0584 27.0747C24.0817 27.1193 24.1042 27.156 24.1233 27.1817C24.1265 27.1861 24.1293 27.1897 24.1316 27.1925C24.2212 27.2455 24.3547 27.2712 24.5681 27.2109C24.8034 27.1445 25.0815 26.9842 25.3497 26.7434C25.6153 26.5049 25.8384 26.2167 25.979 25.9366C26.1246 25.6467 26.1515 25.4293 26.1282 25.3033C26.1009 25.1553 26.0779 25.0815 26.0547 25.0313C26.0355 24.9895 26.0061 24.9417 25.9346 24.8711L25.9336 24.8701C25.922 24.8584 25.8847 24.8208 25.7257 24.8493C25.5479 24.8812 25.3063 24.9875 25.0373 25.1729C24.7749 25.3539 24.5249 25.5837 24.3312 25.8132C24.1271 26.0551 24.0301 26.2435 24.0057 26.3354C23.9858 26.4101 23.9783 26.5643 23.9899 26.7523C23.9951 26.8357 24.0029 26.9102 24.0094 26.9636C24.0098 26.9671 24.0102 26.9706 24.0107 26.9739Z" fill="white"/>
</svg>
