<svg width="40" height="40" viewBox="0 0 40 40" fill="none" xmlns="http://www.w3.org/2000/svg">
<path d="M26.6491 16.6663C26.6497 17.4027 26.0532 18.0001 25.3169 18.0007C24.5805 18.0013 23.983 17.4048 23.9824 16.6685C23.9818 15.9321 24.5783 15.3346 25.3147 15.334C26.051 15.3334 26.6485 15.9299 26.6491 16.6663Z" fill="white"/>
<path d="M28.6606 29.3307C29.397 29.3301 29.9934 28.7327 29.9928 27.9963C29.9922 27.2599 29.3948 26.6635 28.6584 26.6641C27.922 26.6647 27.3256 27.2621 27.3262 27.9985C27.3268 28.7349 27.9242 29.3313 28.6606 29.3307Z" fill="white"/>
<path d="M26.6569 26.6663C26.6575 27.4027 26.061 28.0001 25.3246 28.0007C24.5882 28.0013 23.9908 27.4048 23.9902 26.6685C23.9896 25.9321 24.5861 25.3346 25.3224 25.334C26.0588 25.3334 26.6563 25.9299 26.6569 26.6663Z" fill="white"/>
<path d="M27.9887 24.6647C28.7251 24.6641 29.3216 24.0666 29.321 23.3302C29.3204 22.5939 28.7229 21.9974 27.9865 21.998C27.2502 21.9986 26.6537 22.596 26.6543 23.3324C26.6549 24.0688 27.2523 24.6653 27.9887 24.6647Z" fill="white"/>
<path d="M26.653 20.6663C26.6536 21.4027 26.0571 22.0001 25.3207 22.0007C24.5843 22.0013 23.9869 21.4048 23.9863 20.6685C23.9857 19.9321 24.5822 19.3346 25.3185 19.334C26.0549 19.3334 26.6524 19.9299 26.653 20.6663Z" fill="white"/>
<path d="M14.6508 18.0104C13.9144 18.011 13.317 17.4146 13.3164 16.6782C13.3158 15.9418 13.9123 15.3444 14.6486 15.3438C15.385 15.3432 15.9825 15.9396 15.9831 16.676C15.9837 17.4124 15.3872 18.0098 14.6508 18.0104Z" fill="white"/>
<path d="M9.99219 28.0141C9.99279 28.7505 10.5902 29.347 11.3266 29.3464C12.063 29.3458 12.6594 28.7483 12.6588 28.012C12.6582 27.2756 12.0608 26.6791 11.3244 26.6797C10.588 26.6803 9.99159 27.2778 9.99219 28.0141Z" fill="white"/>
<path d="M14.6586 28.0104C13.9222 28.011 13.3248 27.4146 13.3242 26.6782C13.3236 25.9418 13.9201 25.3444 14.6564 25.3438C15.3928 25.3432 15.9903 25.9396 15.9909 26.676C15.9915 27.4124 15.395 28.0098 14.6586 28.0104Z" fill="white"/>
<path d="M10.6543 23.3462C10.6549 24.0825 11.2523 24.679 11.9887 24.6784C12.7251 24.6778 13.3216 24.0804 13.321 23.344C13.3204 22.6076 12.7229 22.0111 11.9865 22.0117C11.2502 22.0123 10.6537 22.6098 10.6543 23.3462Z" fill="white"/>
<path d="M14.6528 22.0104C13.9164 22.011 13.319 21.4146 13.3184 20.6782C13.3178 19.9418 13.9142 19.3444 14.6506 19.3438C15.387 19.3432 15.9844 19.9396 15.985 20.676C15.9856 21.4124 15.3892 22.0098 14.6528 22.0104Z" fill="white"/>
<path fill-rule="evenodd" clip-rule="evenodd" d="M19.9991 8C20.6658 8 20.6658 8.00009 20.6658 8.00009L20.666 17.6641C20.666 18.5955 21.0419 18.9583 21.3352 19.1293C21.3678 19.1483 21.4007 19.1656 21.4334 19.1813C21.4328 19.1017 21.4319 19.0187 21.431 18.9327C21.4058 16.5803 21.3567 11.9992 24.9826 11.9992C29.9496 11.9992 33.4976 29.3369 31.3688 31.106C29.24 32.8751 24.9826 31.8137 22.8538 29.6907C21.1352 27.9767 21.2838 23.9716 21.3906 21.0965C21.3972 20.9203 21.4035 20.7483 21.4093 20.5815C21.1925 20.5275 20.9299 20.4364 20.6635 20.2811C20.4262 20.1427 20.1982 19.9601 20 19.7257C19.8015 19.9609 19.573 20.1439 19.3352 20.2827C19.0688 20.4381 18.8062 20.5291 18.5894 20.5831C18.5952 20.7495 18.6015 20.9208 18.608 21.0964C18.715 23.9715 18.8639 27.9767 17.1453 29.6907C15.0167 31.8137 10.7592 32.8751 8.63039 31.106C6.50153 29.3369 10.0485 11.9992 15.0156 11.9992C18.6414 11.9992 18.5926 16.5803 18.5676 18.9327C18.5674 18.9435 18.5674 18.9543 18.5672 18.9651C18.5664 19.0401 18.5657 19.1129 18.5651 19.183C18.5979 19.1673 18.6308 19.1499 18.6635 19.1309C18.9567 18.9599 19.3326 18.5971 19.3326 17.6657L19.3324 8.00009C19.3324 8.00009 19.3324 8 19.9991 8ZM24.9826 13.3325C24.3465 13.3325 23.9886 13.5329 23.7381 13.7907C23.4492 14.0881 23.2078 14.5665 23.0384 15.2425C22.7418 16.4258 22.7544 17.7874 22.7646 18.8856C22.7663 19.0756 22.768 19.2577 22.768 19.4297C22.768 19.9363 22.7455 20.5429 22.722 21.1741V21.175C22.7128 21.4233 22.7034 21.6753 22.6952 21.9264C22.6654 22.8432 22.6484 23.8031 22.6927 24.7315C22.7372 25.6651 22.8418 26.5217 23.0372 27.2391C23.2349 27.9649 23.4996 28.4517 23.7953 28.7466C24.6474 29.5963 25.9929 30.2829 27.3652 30.5489C28.7218 30.812 29.814 30.6173 30.4536 30.1307C30.4569 30.1232 30.4606 30.1145 30.4646 30.1043C30.5041 30.0057 30.552 29.8363 30.5909 29.5783C30.6688 29.0616 30.689 28.3409 30.6366 27.4529C30.532 25.6864 30.1514 23.4453 29.5502 21.2398C28.9468 19.0258 28.1439 16.9326 27.2338 15.4249C26.7782 14.6702 26.3291 14.1185 25.9126 13.7684C25.5002 13.4219 25.1947 13.3325 24.9826 13.3325ZM15.0156 13.3325C15.6517 13.3325 16.0096 13.5329 16.2601 13.7907C16.5491 14.0881 16.7904 14.5665 16.9599 15.2425C17.2566 16.4258 17.2441 17.7874 17.234 18.8856C17.2322 19.0756 17.2306 19.2577 17.2306 19.4297C17.2306 19.9363 17.2532 20.5429 17.2766 21.1741C17.2858 21.4227 17.2952 21.6749 17.3034 21.9264C17.3334 22.8432 17.3504 23.8031 17.3062 24.7315C17.2618 25.6651 17.1571 26.5217 16.9618 27.2391C16.7641 27.9649 16.4994 28.4517 16.2038 28.7466C15.3517 29.5963 14.0063 30.2828 12.634 30.5489C11.2774 30.812 10.1852 30.6173 9.54559 30.1307C9.54227 30.1232 9.53857 30.1145 9.53451 30.1043C9.49503 30.0057 9.44715 29.8363 9.40823 29.5783C9.3303 29.0616 9.31 28.3409 9.36248 27.4529C9.46689 25.6864 9.84736 23.4453 10.4484 21.2398C11.0518 19.0258 11.8545 16.9326 12.7646 15.4249C13.22 14.6703 13.6691 14.1185 14.0856 13.7684C14.498 13.4219 14.8035 13.3325 15.0156 13.3325Z" fill="white"/>
</svg>
