<svg width="40" height="40" viewBox="0 0 40 40" fill="none" xmlns="http://www.w3.org/2000/svg">
<path fill-rule="evenodd" clip-rule="evenodd" d="M20.3828 11.3327C21.3033 11.3327 22.0495 10.5865 22.0495 9.66602C22.0495 8.74554 21.3033 7.99935 20.3828 7.99935C19.4623 7.99935 18.7161 8.74554 18.7161 9.66602C18.7161 10.5865 19.4623 11.3327 20.3828 11.3327ZM20.3828 12.666C22.0397 12.666 23.3828 11.3229 23.3828 9.66602C23.3828 8.00916 22.0397 6.66602 20.3828 6.66602C18.7259 6.66602 17.3828 8.00916 17.3828 9.66602C17.3828 11.3229 18.7259 12.666 20.3828 12.666Z" fill="white"/>
<path fill-rule="evenodd" clip-rule="evenodd" d="M17.4352 14.2043C17.6173 14.1249 17.9546 14 18.3822 14H19.7155C20.0962 14 20.4004 14.1095 20.4826 14.1391L20.488 14.141C20.6215 14.189 20.7451 14.2447 20.8471 14.2944C21.0552 14.3957 21.283 14.5256 21.5161 14.6725C21.9867 14.9691 22.5615 15.3871 23.1618 15.9153C24.3468 16.9581 25.7508 18.5365 26.5724 20.5905C27.0946 21.8959 27.0576 23.1555 26.5718 24.2518C26.1175 25.2773 25.3482 25.9876 24.6935 26.45C22.6602 27.886 22.5648 28.8194 22.0475 31.4058C22.0094 32.4768 21.1291 33.3333 20.0488 33.3333C18.9442 33.3333 18.0488 32.4379 18.0488 31.3333C18.0488 27.9115 18.0472 25.8756 17.8926 23.9502C17.0224 24.5845 15.7998 24.4159 15.1353 23.5593C14.9733 23.3505 14.525 22.7197 14.1246 22.1128C13.9218 21.8054 13.7081 21.4691 13.5386 21.1717C13.4556 21.026 13.3638 20.8561 13.287 20.6853C13.2487 20.6003 13.2004 20.485 13.1585 20.3527C13.1258 20.2495 13.0488 19.9922 13.0488 19.6667C13.0488 19.1896 13.2226 18.8187 13.2605 18.7378L13.261 18.7369L13.2614 18.7359L13.2626 18.7333C13.3257 18.5963 13.3962 18.4731 13.4521 18.3804C13.5674 18.1893 13.7104 17.981 13.8564 17.7796C14.1534 17.3697 14.5422 16.8789 14.947 16.4067C15.3472 15.9397 15.7993 15.4485 16.2226 15.0573C16.4303 14.8653 16.6746 14.6567 16.9326 14.4835C17.0621 14.3965 17.2334 14.2924 17.4352 14.2043ZM18.3822 15.3333C17.8922 15.3333 17.4658 15.7239 17.1276 16.0365C16.7573 16.3787 16.3427 16.8271 15.9593 17.2745C15.5744 17.7235 15.2087 18.1857 14.936 18.5619C14.7684 18.7933 14.5937 19.0307 14.4735 19.2915C14.4192 19.4094 14.3822 19.5359 14.3822 19.6667C14.3822 19.9713 14.5512 20.2556 14.697 20.5115C14.8454 20.772 15.0409 21.0805 15.2376 21.3786C15.6293 21.9723 16.0565 22.5715 16.1888 22.742C16.4144 23.0329 16.8332 23.0857 17.1242 22.8601C17.415 22.6344 17.4679 22.2156 17.2422 21.9247C17.1397 21.7925 16.7336 21.225 16.3506 20.6444C16.219 20.4449 16.0949 20.2511 15.9894 20.0779L15.7585 19.6989L16.0191 19.3396C16.267 18.9979 16.6082 18.5662 16.9716 18.1422C17.0535 18.0467 17.1355 17.9527 17.2169 17.8613L18.1087 16.8587L18.369 18.175C19.3769 23.2721 19.3822 24.9487 19.3822 31.3333C19.3822 31.7015 19.6806 32 20.0488 32C20.463 32 20.7155 31.6527 20.7155 31.2673C21.2596 28.5467 21.5788 27.0174 23.9243 25.3609C24.4678 24.9771 25.0312 24.4375 25.3528 23.7116C25.6849 22.9622 25.7308 22.0767 25.3345 21.0857C24.6162 19.29 23.3704 17.8749 22.2809 16.9162C21.7336 16.4346 21.2156 16.0591 20.8053 15.8005C20.5622 15.6474 20.309 15.4935 20.0373 15.3959C19.934 15.3587 19.8258 15.3333 19.7155 15.3333H18.3822Z" fill="white"/>
</svg>
