<svg width="40" height="40" viewBox="0 0 40 40" fill="none" xmlns="http://www.w3.org/2000/svg">
<path fill-rule="evenodd" clip-rule="evenodd" d="M16.6667 16.666C17.4759 16.666 18.1576 17.1049 18.6142 17.7137C19.0707 18.3223 19.3333 19.1327 19.3333 19.9993C19.3333 20.866 19.0707 21.6763 18.6142 22.2849C18.1576 22.8938 17.4759 23.3327 16.6667 23.3327C15.8575 23.3327 15.1757 22.8938 14.7191 22.2849C14.2626 21.6763 14 20.866 14 19.9993C14 19.1327 14.2626 18.3223 14.7191 17.7137C15.1757 17.1049 15.8575 16.666 16.6667 16.666ZM18 19.9993C18 19.3933 17.8149 18.8702 17.5475 18.5137C17.2803 18.1574 16.9621 17.9993 16.6667 17.9993C16.3713 17.9993 16.053 18.1574 15.7858 18.5137C15.5184 18.8702 15.3333 19.3933 15.3333 19.9993C15.3333 20.6054 15.5184 21.1285 15.7858 21.4849C16.053 21.8413 16.3713 21.9993 16.6667 21.9993C16.9621 21.9993 17.2803 21.8413 17.5475 21.4849C17.8149 21.1285 18 20.6054 18 19.9993Z" fill="white"/>
<path fill-rule="evenodd" clip-rule="evenodd" d="M21.3851 17.7137C21.8417 17.1049 22.5235 16.666 23.3327 16.666C24.1419 16.666 24.8236 17.1049 25.2802 17.7137C25.7367 18.3223 25.9993 19.1327 25.9993 19.9993C25.9993 20.866 25.7367 21.6763 25.2802 22.2849C24.8236 22.8938 24.1419 23.3327 23.3327 23.3327C22.5235 23.3327 21.8417 22.8938 21.3851 22.2849C20.9286 21.6763 20.666 20.866 20.666 19.9993C20.666 19.1327 20.9286 18.3223 21.3851 17.7137ZM22.4518 18.5137C22.1844 18.8702 21.9993 19.3933 21.9993 19.9993C21.9993 20.6054 22.1844 21.1285 22.4518 21.4849C22.719 21.8413 23.0373 21.9993 23.3327 21.9993C23.6281 21.9993 23.9463 21.8413 24.2135 21.4849C24.4809 21.1285 24.666 20.6054 24.666 19.9993C24.666 19.3933 24.4809 18.8702 24.2135 18.5137C23.9463 18.1574 23.6281 17.9993 23.3327 17.9993C23.0373 17.9993 22.719 18.1574 22.4518 18.5137Z" fill="white"/>
<path d="M20 23.334L19.9879 23.3396C19.8214 23.4177 18 24.2997 18 25.5179C18 26.0714 18.3863 26.5877 18.9329 26.6589C18.9751 26.6645 19.0184 26.6673 19.0625 26.6673C19.4887 26.6673 19.8049 26.4192 20 26.0672C20.1952 26.4192 20.5114 26.6673 20.9375 26.6673C20.9816 26.6673 21.0249 26.6645 21.0671 26.6589C21.6137 26.5877 22 26.0715 22 25.5179C22 24.2467 20.0119 23.3392 20.0119 23.3392L20 23.334Z" fill="white"/>
<path fill-rule="evenodd" clip-rule="evenodd" d="M12.6462 9.03766C10.9078 10.5473 10 12.6522 10 14.9993C10 17.2869 10.5326 18.7218 11.0704 19.7975C11.1928 20.0423 11.3149 20.2675 11.425 20.4703L11.4478 20.5124C11.566 20.7304 11.6669 20.9181 11.7517 21.0972C11.9195 21.4514 12 21.7231 12 21.9993V24.6655C12 25.0337 12.2985 25.3327 12.6667 25.3327H12.6771C12.6863 25.6945 12.7037 26.1796 12.7365 26.7235C12.8055 27.8693 12.9452 29.3249 13.2373 30.4361C13.3491 30.8619 13.6162 31.2249 13.9835 31.4606C14.8429 32.0119 17.1851 33.3327 20 33.3327C22.8149 33.3327 25.1571 32.0119 26.0165 31.4606C26.3838 31.2249 26.6509 30.8619 26.7627 30.4361C27.0548 29.3249 27.1945 27.8693 27.2635 26.7235C27.2963 26.1796 27.3137 25.6945 27.3229 25.3327H27.3333C27.7015 25.3327 28 25.0337 28 24.6655V21.9993C28 21.7231 28.0805 21.4514 28.2483 21.0972C28.3331 20.9181 28.434 20.7304 28.5522 20.5124L28.575 20.4703C28.6851 20.2675 28.8073 20.0422 28.9296 19.7975C29.4675 18.7218 30 17.2869 30 14.9993C30 12.6522 29.0922 10.5473 27.3538 9.03766C25.6221 7.53388 23.1208 6.66602 20 6.66602C16.8792 6.66602 14.3779 7.53388 12.6462 9.03766ZM25.7443 25.6915C25.8111 25.6461 25.8899 25.6017 25.9824 25.5605C25.9725 25.8693 25.9569 26.2397 25.9326 26.6434C25.8644 27.776 25.7299 29.1207 25.4732 30.0972C25.4472 30.196 25.3857 30.2811 25.2965 30.3383C24.5109 30.8423 22.4321 31.9993 20 31.9993C17.5679 31.9993 15.4891 30.8423 14.7035 30.3383C14.6143 30.2811 14.5528 30.196 14.5268 30.0972C14.2701 29.1207 14.1356 27.776 14.0674 26.6434C14.0431 26.2397 14.0275 25.8693 14.0176 25.5605C14.1101 25.6017 14.1889 25.6461 14.2557 25.6915C14.5215 25.872 14.6595 26.1083 14.7303 26.3773C14.8049 26.6607 14.8019 26.9747 14.7697 27.2643C14.7539 27.4061 14.7323 27.5333 14.7127 27.6441L14.7075 27.6732C14.6997 27.7169 14.6915 27.763 14.6853 27.8019C14.6795 27.8387 14.6667 27.9189 14.6667 27.9993C14.6667 28.5693 15.1492 29.0735 15.8995 29.4018C16.6865 29.7461 17.9579 29.9993 20 29.9993C22.0421 29.9993 23.3135 29.7461 24.1005 29.4018C24.8508 29.0735 25.3333 28.5693 25.3333 27.9993C25.3333 27.9189 25.3205 27.8387 25.3147 27.8019C25.3085 27.763 25.3003 27.7169 25.2925 27.6732L25.2873 27.6441C25.2677 27.5333 25.2461 27.4061 25.2303 27.2643C25.1981 26.9747 25.1951 26.6607 25.2697 26.3773C25.3405 26.1083 25.4785 25.872 25.7443 25.6915ZM23.5661 28.1802C23.0198 28.4193 21.9579 28.666 20 28.666C18.0421 28.666 16.9802 28.4193 16.4339 28.1802C16.1815 28.0698 16.0663 27.9768 16.0169 27.9259L16.0256 27.8767C16.0463 27.7596 16.0742 27.5978 16.0949 27.4115C16.1356 27.0448 16.1535 26.5463 16.0197 26.038C15.8822 25.5153 15.5827 24.9809 15.0047 24.5884C14.5711 24.2939 14.0183 24.1051 13.3333 24.0327V21.9993C13.3333 21.4422 13.1639 20.9639 12.9567 20.5265C12.854 20.3097 12.7361 20.0912 12.6199 19.8769L12.5989 19.8381C12.4873 19.6324 12.375 19.4253 12.2629 19.2012C11.8008 18.2769 11.3333 17.0451 11.3333 14.9993C11.3333 13.0131 12.0922 11.2847 13.5205 10.0444C14.9555 8.79816 17.1208 7.99935 20 7.99935C22.8792 7.99935 25.0445 8.79816 26.4795 10.0444C27.9078 11.2847 28.6667 13.0131 28.6667 14.9993C28.6667 17.0451 28.1992 18.2769 27.7371 19.2012C27.625 19.4253 27.5127 19.6324 27.4011 19.8381L27.3801 19.8769C27.2639 20.0912 27.146 20.3097 27.0433 20.5265C26.8361 20.9639 26.6667 21.4422 26.6667 21.9993V24.0327C25.9817 24.1051 25.4289 24.2939 24.9953 24.5884C24.4173 24.9809 24.1178 25.5153 23.9803 26.038C23.8465 26.5463 23.8644 27.0448 23.9051 27.4115C23.9258 27.5978 23.9537 27.7596 23.9744 27.8767L23.9831 27.9259C23.9337 27.9768 23.8185 28.0698 23.5661 28.1802Z" fill="white"/>
</svg>
