<svg width="40" height="40" viewBox="0 0 40 40" fill="none" xmlns="http://www.w3.org/2000/svg">
<path fill-rule="evenodd" clip-rule="evenodd" d="M15.1437 14.0806C15.9303 14.9381 17.2592 15.3059 19.6947 15.358C19.8335 13.5187 20.542 12.0697 21.5905 11.0527C22.7559 9.92225 24.3015 9.36458 25.8349 9.36458C27.3681 9.36458 28.9137 9.92225 30.0792 11.0527C31.2525 12.1907 32 13.8697 32 16.0313V23.3646C32 25.4194 31.6578 27.5654 30.6223 29.2185C29.5567 30.9196 27.7967 32.0313 25.1621 32.0313C22.4681 32.0313 20.5923 30.4325 18.8772 28.9527L18.8025 28.8883C17.0754 27.3977 15.4661 26.0089 13.1779 25.6981C12.0559 25.7065 11.3005 26.0494 10.7732 26.5188C10.2263 27.0056 9.87358 27.6747 9.6534 28.3932C9.43365 29.1104 9.35762 29.8394 9.33861 30.3977C9.32917 30.6747 9.33393 30.9046 9.34088 31.0633C9.34435 31.1425 9.34835 31.2037 9.35134 31.2437C9.35284 31.2637 9.35409 31.2783 9.35489 31.2873L9.35573 31.2965L9.3558 31.2973C9.3558 31.2973 9.35575 31.2968 8.69254 31.3646C8.02932 31.4323 8.02926 31.4317 8.02926 31.4317L8.02919 31.4309L8.02899 31.4291L8.02845 31.4235L8.0268 31.4055C8.02547 31.3905 8.02371 31.3696 8.02173 31.3433C8.01778 31.2905 8.01293 31.2155 8.00882 31.1216C8.00061 30.9339 7.99527 30.669 8.00605 30.3523C8.02747 29.7231 8.11317 28.8687 8.37857 28.0026C8.64356 27.1378 9.09945 26.2235 9.88673 25.5228C10.6869 24.8107 11.7789 24.3646 13.2207 24.3646C13.556 24.3646 13.8719 24.3722 14.1755 24.3795C14.7395 24.3931 15.2607 24.4056 15.7837 24.3664C16.5534 24.3088 17.1883 24.141 17.7129 23.7478C18.717 22.9952 19.5874 21.1983 19.6642 16.6913C17.1849 16.6399 15.3439 16.2713 14.1611 14.9819C13.5187 14.2816 13.1221 13.3651 12.8829 12.2313C12.6446 11.1017 12.554 9.71458 12.554 8.03125H13.8873C13.8873 9.68126 13.9775 10.9607 14.1875 11.9561C14.3967 12.9473 14.7159 13.6142 15.1437 14.0806ZM19.5804 27.7982C18.7082 27.0445 17.7754 26.2383 16.6963 25.5903C17.3255 25.4679 17.9465 25.239 18.5125 24.8147C19.3795 24.1649 20.0328 23.1257 20.4523 21.5295C21.5501 20.7889 22.4525 20.6325 23.2449 20.7197C24.0924 20.8129 24.8762 21.1879 25.7403 21.6259L25.8841 21.6989C26.6687 22.0981 27.554 22.5485 28.4948 22.6669C29.2093 22.7569 29.93 22.6567 30.6667 22.2875V23.3646C30.6667 25.3097 30.3361 27.1637 29.4924 28.5107C28.6788 29.8095 27.3532 30.6979 25.1621 30.6979C23.0304 30.6979 21.5101 29.4633 19.7482 27.9431L19.5804 27.7982ZM30.6667 20.7156V16.0313C30.6667 14.1928 30.0395 12.8717 29.1509 12.0098C28.2545 11.1403 27.0508 10.6979 25.8349 10.6979C24.6189 10.6979 23.4153 11.1403 22.5188 12.0098C21.6302 12.8717 21.0031 14.1928 21.0031 16.0313C21.0031 17.4941 20.9284 18.7487 20.7824 19.8219C21.7041 19.4124 22.5683 19.3039 23.3906 19.3943C24.5118 19.5176 25.4989 20.0086 26.3431 20.4366L26.4033 20.4671C27.264 20.9036 27.9579 21.2555 28.6615 21.3441C29.255 21.4189 29.8975 21.3069 30.6667 20.7156Z" fill="white"/>
</svg>
