<svg width="40" height="40" viewBox="0 0 40 40" fill="none" xmlns="http://www.w3.org/2000/svg">
<path fill-rule="evenodd" clip-rule="evenodd" d="M20 12.666C21.6569 12.666 23 11.3229 23 9.66602C23 8.00916 21.6569 6.66602 20 6.66602C18.3431 6.66602 17 8.00916 17 9.66602C17 11.3229 18.3431 12.666 20 12.666ZM21.6667 9.66602C21.6667 10.5865 20.9205 11.3327 20 11.3327C19.0795 11.3327 18.3333 10.5865 18.3333 9.66602C18.3333 8.74554 19.0795 7.99935 20 7.99935C20.9205 7.99935 21.6667 8.74554 21.6667 9.66602Z" fill="white"/>
<path fill-rule="evenodd" clip-rule="evenodd" d="M12 18.0007H13.5695C14.0395 18.4156 14.6571 18.6673 15.3333 18.6673C15.4462 18.6673 15.5575 18.6603 15.6667 18.6467V21.3261V21.3309L15.6666 23.2779C15.6589 23.3215 15.6415 23.4084 15.6043 23.5488C15.54 23.7918 15.4403 24.11 15.3079 24.4923C15.1237 25.0246 14.8925 25.6348 14.6431 26.2638C14.2779 26.689 14.0443 27.2305 14.0057 27.8253C13.7468 28.4439 13.5007 29.0159 13.3017 29.473C13.1631 29.7911 13.0478 30.0525 12.9674 30.2339C12.7798 30.6567 12.6478 31.1717 12.7198 31.6891C12.7964 32.2401 13.0997 32.7418 13.6736 33.07C14.5675 33.5813 15.7035 33.3303 16.2987 32.49L17.2987 31.0783C17.3259 31.0399 17.3518 31.0005 17.3762 30.9602L17.6733 30.4708C18.6471 30.0735 19.3333 29.1173 19.3333 28.0007C19.3333 27.9179 19.3295 27.8359 19.3222 27.755L20.1666 26.3642L22.9571 30.9602C22.9815 31.0004 23.0073 31.0398 23.0346 31.0783L24.0346 32.49C24.6298 33.3303 25.7658 33.5813 26.6597 33.07C27.2335 32.7418 27.5368 32.2401 27.6135 31.6891C27.6854 31.1717 27.5535 30.6567 27.3659 30.2339C27.2855 30.0525 27.1701 29.7911 27.0315 29.473C26.754 28.8356 26.3853 27.9752 26.0177 27.0767C25.6482 26.1735 25.289 25.254 25.0253 24.4923C24.893 24.11 24.7933 23.7918 24.7289 23.5488L24.7177 23.5058V21.4605C25.493 20.9181 26 20.0186 26 19.0007C26 18.65 25.9399 18.3135 25.8293 18.0007H28C29.1046 18.0007 30 17.1053 30 16.0007C30 14.8961 29.1046 14.0007 28 14.0007H17.0972C16.6271 13.5857 16.0096 13.334 15.3333 13.334C14.6571 13.334 14.0395 13.5857 13.5695 14.0007H12C10.8954 14.0007 10 14.8961 10 16.0007C10 17.1053 10.8954 18.0007 12 18.0007ZM12.7507 15.334H12C11.6318 15.334 11.3333 15.6325 11.3333 16.0007C11.3333 16.3689 11.6318 16.6673 12 16.6673H12.7507C12.6959 16.4543 12.6667 16.2309 12.6667 16.0007C12.6667 15.7705 12.6959 15.5471 12.7507 15.334ZM17 21.3292V18.0825C17.6097 17.5937 18 16.8428 18 16.0007C18 15.7705 17.9708 15.5471 17.916 15.334H28C28.3682 15.334 28.6667 15.6325 28.6667 16.0007C28.6667 16.3689 28.3682 16.6673 28 16.6673H24.8858C24.3705 16.2504 23.7144 16.0007 23 16.0007C21.3431 16.0007 20 17.3438 20 19.0007C20 20.6575 21.3431 22.0007 23 22.0007C23.1303 22.0007 23.2585 21.9923 23.3844 21.9763V23.5871C23.3844 23.6393 23.3905 23.6914 23.4027 23.7421C23.4133 23.7866 23.4257 23.8357 23.44 23.89C23.5161 24.1776 23.6275 24.5302 23.7654 24.9284C24.0407 25.724 24.4105 26.6694 24.7837 27.5816C25.1562 28.4922 25.5291 29.3623 25.8091 30.0053C25.9491 30.3267 26.0656 30.5909 26.1471 30.7746C26.275 31.0629 26.3188 31.3184 26.2928 31.5054C26.2715 31.6588 26.2031 31.7951 25.9977 31.9126C25.6997 32.0831 25.321 31.9994 25.1226 31.7193L24.1226 30.3075C24.1135 30.2948 24.1049 30.2816 24.0968 30.2682L20.7365 24.7337C20.6156 24.5345 20.3995 24.4129 20.1666 24.4129C19.9337 24.4129 19.7177 24.5345 19.5968 24.7337L18.677 26.2485C18.1881 25.6881 17.4687 25.334 16.6667 25.334C16.5835 25.334 16.5013 25.3378 16.4201 25.3453C16.4717 25.2027 16.5211 25.0634 16.5679 24.9284C16.7057 24.5302 16.8171 24.1776 16.8933 23.89C16.9523 23.6671 16.9766 23.5318 16.9872 23.4643C16.9956 23.4222 16.9999 23.3786 16.9999 23.334V21.334L17 21.3292ZM14.5241 30.0053C14.5616 29.9193 14.6008 29.8291 14.6413 29.7354C14.9943 30.1471 15.4706 30.4499 16.013 30.5866L15.2107 31.7193C15.0123 31.9994 14.6336 32.0831 14.3356 31.9126C14.1301 31.7951 14.0617 31.6588 14.0404 31.5054C14.0144 31.3185 14.0582 31.0629 14.1861 30.7746C14.2677 30.5909 14.3842 30.3267 14.5241 30.0053ZM15.3333 17.334C16.0697 17.334 16.6667 16.7371 16.6667 16.0007C16.6667 15.2643 16.0697 14.6673 15.3333 14.6673C14.5969 14.6673 14 15.2643 14 16.0007C14 16.7371 14.5969 17.334 15.3333 17.334ZM23 20.6673C23.9205 20.6673 24.6667 19.9211 24.6667 19.0007C24.6667 18.0802 23.9205 17.334 23 17.334C22.0795 17.334 21.3333 18.0802 21.3333 19.0007C21.3333 19.9211 22.0795 20.6673 23 20.6673ZM16.6667 29.334C17.4031 29.334 18 28.7371 18 28.0007C18 27.2642 17.4031 26.6673 16.6667 26.6673C15.9303 26.6673 15.3333 27.2642 15.3333 28.0007C15.3333 28.7371 15.9303 29.334 16.6667 29.334Z" fill="white"/>
<path d="M23.9551 8.66702C28.6397 10.3014 32.0009 14.7583 32.0009 20.0003C32.0009 23.6826 30.3423 26.9775 27.7315 29.1787L28.57 30.2158C31.4827 27.7699 33.3342 24.1013 33.3342 20.0003C33.3342 14.1763 29.6002 9.22448 24.3957 7.4082L23.9551 8.66702Z" fill="white"/>
<path d="M22.2663 31.7871C21.5327 31.9272 20.7753 32.0006 20.0009 32.0006C19.4203 32.0006 18.8494 31.9594 18.2909 31.8797L18.1055 33.2002C18.7245 33.2884 19.3574 33.3339 20.0009 33.3339C20.8568 33.3339 21.6939 33.2533 22.5049 33.0992L22.2663 31.7871Z" fill="white"/>
<path d="M7.99935 20.0003C7.99935 23.8519 9.81396 27.2797 12.6349 29.4754L11.8325 30.5405C8.68904 28.1014 6.66602 24.2871 6.66602 20.0003C6.66602 14.1763 10.4 9.22448 15.6045 7.4082L16.0451 8.66702C11.3605 10.3014 7.99935 14.7583 7.99935 20.0003Z" fill="white"/>
</svg>
