<svg width="40" height="40" viewBox="0 0 40 40" fill="none" xmlns="http://www.w3.org/2000/svg">
<path d="M17.3333 20.666C18.0697 20.666 18.6667 21.2629 18.6667 21.9993C18.6667 22.7357 18.0697 23.3327 17.3333 23.3327C16.5969 23.3327 16 22.7357 16 21.9993C16 21.2629 16.5969 20.666 17.3333 20.666Z" fill="white"/>
<path d="M20.6667 16.6673C20.6667 15.9309 20.0697 15.334 19.3333 15.334C18.5969 15.334 18 15.9309 18 16.6673C18 17.4037 18.5969 18.0007 19.3333 18.0007C20.0697 18.0007 20.6667 17.4037 20.6667 16.6673Z" fill="white"/>
<path d="M23.3333 20C24.0697 20 24.6667 20.5969 24.6667 21.3333C24.6667 22.0697 24.0697 22.6667 23.3333 22.6667C22.5969 22.6667 22 22.0697 22 21.3333C22 20.5969 22.5969 20 23.3333 20Z" fill="white"/>
<path fill-rule="evenodd" clip-rule="evenodd" d="M17.9993 7.33268C17.9993 6.9645 18.2978 6.66602 18.666 6.66602H21.3327C21.7009 6.66602 21.9993 6.9645 21.9993 7.33268C21.9993 7.70087 21.7009 7.99935 21.3327 7.99935H20.666V10.0212C22.9258 10.17 24.9806 11.0693 26.5833 12.4725L28.0132 11.0426L27.5418 10.5712C27.2814 10.3108 27.2814 9.88872 27.5418 9.62837C27.8021 9.36802 28.2242 9.36802 28.4846 9.62837L30.3702 11.514C30.6305 11.7743 30.6305 12.1964 30.3702 12.4568C30.1099 12.7171 29.6877 12.7171 29.4274 12.4568L28.956 11.9854L27.5261 13.4153C28.9293 15.018 29.8287 17.0729 29.9775 19.3328H31.9993V18.6661C31.9993 18.298 32.2978 17.9995 32.666 17.9995C33.0342 17.9995 33.3327 18.298 33.3327 18.6661V21.3328C33.3327 21.701 33.0342 21.9995 32.666 21.9995C32.2978 21.9995 31.9993 21.701 31.9993 21.3328V20.6661H29.9775C29.8287 22.9259 28.9293 24.9807 27.5261 26.5834L28.956 28.0133L29.4274 27.5419C29.6878 27.2815 30.1099 27.2815 30.3702 27.5419C30.6306 27.8022 30.6306 28.2243 30.3702 28.4847L28.4846 30.3703C28.2243 30.6306 27.8021 30.6306 27.5418 30.3703C27.2815 30.1099 27.2815 29.6878 27.5418 29.4275L28.0132 28.9561L26.5833 27.5262C24.9806 28.9293 22.9258 29.8287 20.666 29.9775V31.9993H21.3327C21.7009 31.9993 21.9993 32.2978 21.9993 32.666C21.9993 33.0342 21.7009 33.3327 21.3327 33.3327H18.666C18.2978 33.3327 17.9993 33.0342 17.9993 32.666C17.9993 32.2978 18.2978 31.9993 18.666 31.9993H19.3327V29.9775C17.0728 29.8287 15.018 28.9293 13.4153 27.5261L11.9854 28.9559L12.4568 29.4273C12.7172 29.6877 12.7172 30.1098 12.4568 30.3701C12.1965 30.6305 11.7743 30.6305 11.514 30.3701L9.62841 28.4845C9.36806 28.2242 9.36806 27.8021 9.62841 27.5417C9.88876 27.2814 10.3109 27.2814 10.5712 27.5417L11.0426 28.0131L12.4725 26.5833C11.0694 24.9806 10.17 22.9259 10.0212 20.6661H7.99935V21.3328C7.99935 21.701 7.70087 21.9995 7.33268 21.9995C6.9645 21.9995 6.66602 21.701 6.66602 21.3328V18.6661C6.66602 18.298 6.9645 17.9995 7.33268 17.9995C7.70087 17.9995 7.99935 18.298 7.99935 18.6661V19.3328H10.0212C10.1699 17.0729 11.0693 15.0181 12.4725 13.4153L11.0427 11.9855L10.5713 12.4569C10.3109 12.7173 9.8888 12.7173 9.62845 12.4569C9.3681 12.1965 9.3681 11.7745 9.62845 11.5141L11.5141 9.62849C11.7744 9.36814 12.1965 9.36814 12.4569 9.62849C12.7172 9.88884 12.7172 10.3109 12.4569 10.5713L11.9855 11.0427L13.4153 12.4725C15.018 11.0694 17.0728 10.17 19.3327 10.0212V7.99935H18.666C18.2978 7.99935 17.9993 7.70087 17.9993 7.33268ZM26.5809 14.3605C27.7453 15.7183 28.4969 17.4407 28.6407 19.3328H27.9993C27.6311 19.3328 27.3327 19.6313 27.3327 19.9995C27.3327 20.3677 27.6311 20.6661 27.9993 20.6661H28.6407C28.4967 22.5582 27.7453 24.2804 26.5809 25.6381L26.1276 25.1848C25.8673 24.9245 25.4451 24.9245 25.1848 25.1848C24.9244 25.4452 24.9244 25.8673 25.1848 26.1277L25.6381 26.581C24.2803 27.7453 22.5581 28.4968 20.666 28.6407V27.9993C20.666 27.6311 20.3675 27.3327 19.9993 27.3327C19.6311 27.3327 19.3327 27.6311 19.3327 27.9993V28.6407C17.4405 28.4968 15.7183 27.7453 14.3605 26.5809L14.8139 26.1275C15.0742 25.8671 15.0742 25.4451 14.8139 25.1847C14.5535 24.9243 14.1314 24.9243 13.8711 25.1847L13.4177 25.6381C12.2533 24.2803 11.5019 22.5581 11.3579 20.6661H11.9993C12.3675 20.6661 12.666 20.3677 12.666 19.9995C12.666 19.6313 12.3675 19.3328 11.9993 19.3328H11.3579C11.5018 17.4407 12.2533 15.7184 13.4177 14.3605L13.8711 14.8139C14.1314 15.0743 14.5535 15.0743 14.8139 14.8139C15.0742 14.5536 15.0742 14.1315 14.8139 13.8711L14.3605 13.4177C15.7183 12.2533 17.4406 11.5019 19.3327 11.3579V11.9993C19.3327 12.3675 19.6311 12.666 19.9993 12.666C20.3675 12.666 20.666 12.3675 20.666 11.9993V11.3579C22.5581 11.5019 24.2803 12.2533 25.6381 13.4177L25.1847 13.871C24.9244 14.1313 24.9244 14.5535 25.1847 14.8138C25.4451 15.0741 25.8672 15.0741 26.1275 14.8138L26.5809 14.3605Z" fill="white"/>
</svg>
